G04 MADE WITH FRITZING*
G04 WWW.FRITZING.ORG*
G04 DOUBLE SIDED*
G04 HOLES PLATED*
G04 CONTOUR ON CENTER OF CONTOUR VECTOR*
%ASAXBY*%
%FSLAX23Y23*%
%MOIN*%
%OFA0B0*%
%SFA1.0B1.0*%
%ADD10C,0.088000*%
%ADD11C,0.070000*%
%ADD12C,0.049370*%
%ADD13R,0.065556X0.065556*%
%ADD14R,0.072992X0.084803*%
%ADD15R,0.058000X0.098000*%
%ADD16R,0.151732X0.096614*%
%ADD17R,0.045433X0.041496*%
%ADD18C,0.010000*%
%ADD19R,0.001000X0.001000*%
%LNMASK0*%
G90*
G70*
G54D10*
X77Y85D03*
X177Y85D03*
G54D11*
X638Y954D03*
X738Y954D03*
X838Y954D03*
X938Y954D03*
G54D12*
X468Y628D03*
X180Y820D03*
X156Y724D03*
X708Y220D03*
X468Y700D03*
X276Y292D03*
X708Y652D03*
X948Y532D03*
X108Y844D03*
X84Y412D03*
G54D13*
X738Y954D03*
X639Y955D03*
X838Y955D03*
X935Y955D03*
G54D14*
X380Y932D03*
X257Y932D03*
X642Y774D03*
X520Y774D03*
X777Y776D03*
X899Y776D03*
X781Y626D03*
X903Y626D03*
X511Y523D03*
X633Y523D03*
G54D15*
X64Y500D03*
X155Y500D03*
X246Y500D03*
G54D16*
X155Y256D03*
G54D17*
X46Y588D03*
G54D18*
G36*
X64Y647D02*
X29Y647D01*
X29Y678D01*
X64Y678D01*
X64Y647D01*
G37*
D02*
G36*
X143Y609D02*
X107Y609D01*
X107Y641D01*
X143Y641D01*
X143Y609D01*
G37*
D02*
G54D19*
D02*
G04 End of Mask0*
M02*