G04 MADE WITH FRITZING*
G04 WWW.FRITZING.ORG*
G04 DOUBLE SIDED*
G04 HOLES PLATED*
G04 CONTOUR ON CENTER OF CONTOUR VECTOR*
%ASAXBY*%
%FSLAX23Y23*%
%MOIN*%
%OFA0B0*%
%SFA1.0B1.0*%
%ADD10C,0.078000*%
%ADD11C,0.039370*%
%ADD12R,0.094488X0.110236*%
%ADD13R,0.070866X0.062992*%
%ADD14R,0.062992X0.074803*%
%ADD15C,0.024000*%
%LNCOPPER1*%
G90*
G70*
G54D10*
X77Y85D03*
X177Y85D03*
G54D11*
X708Y652D03*
X276Y292D03*
X156Y724D03*
X708Y220D03*
X468Y628D03*
X180Y820D03*
X84Y412D03*
X108Y844D03*
X948Y532D03*
X468Y700D03*
G54D12*
X345Y159D03*
X794Y159D03*
X345Y399D03*
X794Y399D03*
G54D13*
X905Y313D03*
X905Y423D03*
X908Y71D03*
X908Y182D03*
G54D14*
X261Y624D03*
X383Y624D03*
X258Y774D03*
X381Y774D03*
G54D15*
X409Y625D02*
X449Y627D01*
D02*
X233Y789D02*
X196Y810D01*
D02*
X235Y649D02*
X170Y711D01*
D02*
X878Y176D02*
X835Y167D01*
D02*
X723Y209D02*
X752Y189D01*
D02*
X179Y115D02*
X204Y484D01*
X204Y484D02*
X324Y556D01*
X324Y556D02*
X324Y700D01*
X324Y700D02*
X449Y700D01*
D02*
X356Y742D02*
X324Y700D01*
D02*
X295Y295D02*
X420Y316D01*
X420Y316D02*
X696Y638D01*
D02*
X883Y449D02*
X720Y638D01*
D02*
X875Y336D02*
X835Y367D01*
D02*
X938Y96D02*
X972Y124D01*
X972Y124D02*
X972Y244D01*
X972Y244D02*
X930Y287D01*
D02*
X961Y545D02*
X972Y556D01*
X972Y556D02*
X972Y364D01*
X972Y364D02*
X935Y336D01*
D02*
X125Y852D02*
X372Y964D01*
X372Y964D02*
X933Y543D01*
D02*
X85Y431D02*
X107Y825D01*
G04 End of Copper1*
M02*