G04 MADE WITH FRITZING*
G04 WWW.FRITZING.ORG*
G04 DOUBLE SIDED*
G04 HOLES PLATED*
G04 CONTOUR ON CENTER OF CONTOUR VECTOR*
%ASAXBY*%
%FSLAX23Y23*%
%MOIN*%
%OFA0B0*%
%SFA1.0B1.0*%
%ADD10C,0.008000*%
%ADD11R,0.001000X0.001000*%
%LNSILK0*%
G90*
G70*
G54D10*
X284Y443D02*
X26Y443D01*
D02*
X26Y443D02*
X26Y313D01*
G54D11*
X0Y1000D02*
X999Y1000D01*
X0Y999D02*
X999Y999D01*
X0Y998D02*
X999Y998D01*
X0Y997D02*
X999Y997D01*
X0Y996D02*
X999Y996D01*
X0Y995D02*
X999Y995D01*
X0Y994D02*
X999Y994D01*
X0Y993D02*
X999Y993D01*
X0Y992D02*
X7Y992D01*
X992Y992D02*
X999Y992D01*
X0Y991D02*
X7Y991D01*
X992Y991D02*
X999Y991D01*
X0Y990D02*
X7Y990D01*
X992Y990D02*
X999Y990D01*
X0Y989D02*
X7Y989D01*
X992Y989D02*
X999Y989D01*
X0Y988D02*
X7Y988D01*
X992Y988D02*
X999Y988D01*
X0Y987D02*
X7Y987D01*
X992Y987D02*
X999Y987D01*
X0Y986D02*
X7Y986D01*
X992Y986D02*
X999Y986D01*
X0Y985D02*
X7Y985D01*
X992Y985D02*
X999Y985D01*
X0Y984D02*
X7Y984D01*
X992Y984D02*
X999Y984D01*
X0Y983D02*
X7Y983D01*
X992Y983D02*
X999Y983D01*
X0Y982D02*
X7Y982D01*
X992Y982D02*
X999Y982D01*
X0Y981D02*
X7Y981D01*
X992Y981D02*
X999Y981D01*
X0Y980D02*
X7Y980D01*
X992Y980D02*
X999Y980D01*
X0Y979D02*
X7Y979D01*
X992Y979D02*
X999Y979D01*
X0Y978D02*
X7Y978D01*
X992Y978D02*
X999Y978D01*
X0Y977D02*
X7Y977D01*
X218Y977D02*
X418Y977D01*
X992Y977D02*
X999Y977D01*
X0Y976D02*
X7Y976D01*
X218Y976D02*
X418Y976D01*
X992Y976D02*
X999Y976D01*
X0Y975D02*
X7Y975D01*
X218Y975D02*
X418Y975D01*
X992Y975D02*
X999Y975D01*
X0Y974D02*
X7Y974D01*
X218Y974D02*
X220Y974D01*
X294Y974D02*
X342Y974D01*
X416Y974D02*
X418Y974D01*
X992Y974D02*
X999Y974D01*
X0Y973D02*
X7Y973D01*
X218Y973D02*
X220Y973D01*
X416Y973D02*
X418Y973D01*
X992Y973D02*
X999Y973D01*
X0Y972D02*
X7Y972D01*
X218Y972D02*
X220Y972D01*
X416Y972D02*
X418Y972D01*
X992Y972D02*
X999Y972D01*
X0Y971D02*
X7Y971D01*
X218Y971D02*
X220Y971D01*
X416Y971D02*
X418Y971D01*
X992Y971D02*
X999Y971D01*
X0Y970D02*
X7Y970D01*
X218Y970D02*
X220Y970D01*
X416Y970D02*
X418Y970D01*
X992Y970D02*
X999Y970D01*
X0Y969D02*
X7Y969D01*
X218Y969D02*
X220Y969D01*
X416Y969D02*
X418Y969D01*
X992Y969D02*
X999Y969D01*
X0Y968D02*
X7Y968D01*
X218Y968D02*
X220Y968D01*
X416Y968D02*
X418Y968D01*
X992Y968D02*
X999Y968D01*
X0Y967D02*
X7Y967D01*
X218Y967D02*
X220Y967D01*
X416Y967D02*
X418Y967D01*
X992Y967D02*
X999Y967D01*
X0Y966D02*
X7Y966D01*
X218Y966D02*
X220Y966D01*
X416Y966D02*
X418Y966D01*
X992Y966D02*
X999Y966D01*
X0Y965D02*
X7Y965D01*
X218Y965D02*
X220Y965D01*
X416Y965D02*
X418Y965D01*
X992Y965D02*
X999Y965D01*
X0Y964D02*
X7Y964D01*
X218Y964D02*
X220Y964D01*
X416Y964D02*
X418Y964D01*
X992Y964D02*
X999Y964D01*
X0Y963D02*
X7Y963D01*
X218Y963D02*
X220Y963D01*
X416Y963D02*
X418Y963D01*
X992Y963D02*
X999Y963D01*
X0Y962D02*
X7Y962D01*
X218Y962D02*
X220Y962D01*
X416Y962D02*
X418Y962D01*
X992Y962D02*
X999Y962D01*
X0Y961D02*
X7Y961D01*
X218Y961D02*
X220Y961D01*
X416Y961D02*
X418Y961D01*
X992Y961D02*
X999Y961D01*
X0Y960D02*
X7Y960D01*
X218Y960D02*
X220Y960D01*
X416Y960D02*
X418Y960D01*
X992Y960D02*
X999Y960D01*
X0Y959D02*
X7Y959D01*
X218Y959D02*
X220Y959D01*
X416Y959D02*
X418Y959D01*
X992Y959D02*
X999Y959D01*
X0Y958D02*
X7Y958D01*
X218Y958D02*
X220Y958D01*
X416Y958D02*
X418Y958D01*
X992Y958D02*
X999Y958D01*
X0Y957D02*
X7Y957D01*
X218Y957D02*
X220Y957D01*
X416Y957D02*
X418Y957D01*
X992Y957D02*
X999Y957D01*
X0Y956D02*
X7Y956D01*
X218Y956D02*
X220Y956D01*
X416Y956D02*
X418Y956D01*
X992Y956D02*
X999Y956D01*
X0Y955D02*
X7Y955D01*
X218Y955D02*
X220Y955D01*
X416Y955D02*
X418Y955D01*
X992Y955D02*
X999Y955D01*
X0Y954D02*
X7Y954D01*
X218Y954D02*
X220Y954D01*
X416Y954D02*
X418Y954D01*
X440Y954D02*
X441Y954D01*
X458Y954D02*
X473Y954D01*
X992Y954D02*
X999Y954D01*
X0Y953D02*
X7Y953D01*
X218Y953D02*
X220Y953D01*
X416Y953D02*
X418Y953D01*
X439Y953D02*
X442Y953D01*
X456Y953D02*
X473Y953D01*
X992Y953D02*
X999Y953D01*
X0Y952D02*
X7Y952D01*
X218Y952D02*
X220Y952D01*
X416Y952D02*
X418Y952D01*
X439Y952D02*
X442Y952D01*
X455Y952D02*
X473Y952D01*
X992Y952D02*
X999Y952D01*
X0Y951D02*
X7Y951D01*
X218Y951D02*
X220Y951D01*
X416Y951D02*
X418Y951D01*
X439Y951D02*
X442Y951D01*
X455Y951D02*
X473Y951D01*
X992Y951D02*
X999Y951D01*
X0Y950D02*
X7Y950D01*
X218Y950D02*
X220Y950D01*
X416Y950D02*
X418Y950D01*
X427Y950D02*
X429Y950D01*
X439Y950D02*
X442Y950D01*
X454Y950D02*
X459Y950D01*
X470Y950D02*
X473Y950D01*
X992Y950D02*
X999Y950D01*
X0Y949D02*
X7Y949D01*
X218Y949D02*
X220Y949D01*
X416Y949D02*
X418Y949D01*
X427Y949D02*
X430Y949D01*
X439Y949D02*
X442Y949D01*
X454Y949D02*
X457Y949D01*
X470Y949D02*
X473Y949D01*
X992Y949D02*
X999Y949D01*
X0Y948D02*
X7Y948D01*
X218Y948D02*
X220Y948D01*
X416Y948D02*
X418Y948D01*
X427Y948D02*
X430Y948D01*
X439Y948D02*
X442Y948D01*
X454Y948D02*
X457Y948D01*
X470Y948D02*
X473Y948D01*
X992Y948D02*
X999Y948D01*
X0Y947D02*
X7Y947D01*
X218Y947D02*
X220Y947D01*
X416Y947D02*
X418Y947D01*
X427Y947D02*
X430Y947D01*
X439Y947D02*
X442Y947D01*
X454Y947D02*
X457Y947D01*
X470Y947D02*
X473Y947D01*
X992Y947D02*
X999Y947D01*
X0Y946D02*
X7Y946D01*
X218Y946D02*
X220Y946D01*
X416Y946D02*
X418Y946D01*
X427Y946D02*
X430Y946D01*
X439Y946D02*
X442Y946D01*
X454Y946D02*
X457Y946D01*
X470Y946D02*
X473Y946D01*
X992Y946D02*
X999Y946D01*
X0Y945D02*
X7Y945D01*
X218Y945D02*
X220Y945D01*
X416Y945D02*
X418Y945D01*
X427Y945D02*
X430Y945D01*
X439Y945D02*
X442Y945D01*
X454Y945D02*
X457Y945D01*
X470Y945D02*
X473Y945D01*
X992Y945D02*
X999Y945D01*
X0Y944D02*
X7Y944D01*
X218Y944D02*
X220Y944D01*
X416Y944D02*
X418Y944D01*
X427Y944D02*
X430Y944D01*
X439Y944D02*
X442Y944D01*
X454Y944D02*
X458Y944D01*
X470Y944D02*
X473Y944D01*
X992Y944D02*
X999Y944D01*
X0Y943D02*
X7Y943D01*
X218Y943D02*
X220Y943D01*
X416Y943D02*
X418Y943D01*
X427Y943D02*
X430Y943D01*
X439Y943D02*
X442Y943D01*
X454Y943D02*
X473Y943D01*
X992Y943D02*
X999Y943D01*
X0Y942D02*
X7Y942D01*
X218Y942D02*
X220Y942D01*
X416Y942D02*
X418Y942D01*
X427Y942D02*
X430Y942D01*
X439Y942D02*
X442Y942D01*
X455Y942D02*
X473Y942D01*
X992Y942D02*
X999Y942D01*
X0Y941D02*
X7Y941D01*
X218Y941D02*
X220Y941D01*
X416Y941D02*
X418Y941D01*
X427Y941D02*
X430Y941D01*
X439Y941D02*
X442Y941D01*
X456Y941D02*
X473Y941D01*
X992Y941D02*
X999Y941D01*
X0Y940D02*
X7Y940D01*
X218Y940D02*
X220Y940D01*
X416Y940D02*
X418Y940D01*
X427Y940D02*
X430Y940D01*
X439Y940D02*
X442Y940D01*
X458Y940D02*
X473Y940D01*
X992Y940D02*
X999Y940D01*
X0Y939D02*
X7Y939D01*
X218Y939D02*
X220Y939D01*
X416Y939D02*
X418Y939D01*
X427Y939D02*
X430Y939D01*
X439Y939D02*
X442Y939D01*
X462Y939D02*
X466Y939D01*
X470Y939D02*
X473Y939D01*
X992Y939D02*
X999Y939D01*
X0Y938D02*
X7Y938D01*
X218Y938D02*
X220Y938D01*
X416Y938D02*
X418Y938D01*
X427Y938D02*
X430Y938D01*
X439Y938D02*
X442Y938D01*
X462Y938D02*
X465Y938D01*
X470Y938D02*
X473Y938D01*
X992Y938D02*
X999Y938D01*
X0Y937D02*
X7Y937D01*
X218Y937D02*
X220Y937D01*
X416Y937D02*
X418Y937D01*
X427Y937D02*
X430Y937D01*
X439Y937D02*
X442Y937D01*
X461Y937D02*
X465Y937D01*
X470Y937D02*
X473Y937D01*
X992Y937D02*
X999Y937D01*
X0Y936D02*
X7Y936D01*
X218Y936D02*
X220Y936D01*
X416Y936D02*
X418Y936D01*
X425Y936D02*
X442Y936D01*
X460Y936D02*
X464Y936D01*
X470Y936D02*
X473Y936D01*
X992Y936D02*
X999Y936D01*
X0Y935D02*
X7Y935D01*
X218Y935D02*
X220Y935D01*
X416Y935D02*
X418Y935D01*
X425Y935D02*
X442Y935D01*
X460Y935D02*
X464Y935D01*
X470Y935D02*
X473Y935D01*
X992Y935D02*
X999Y935D01*
X0Y934D02*
X7Y934D01*
X218Y934D02*
X220Y934D01*
X416Y934D02*
X418Y934D01*
X425Y934D02*
X442Y934D01*
X459Y934D02*
X463Y934D01*
X470Y934D02*
X473Y934D01*
X992Y934D02*
X999Y934D01*
X0Y933D02*
X7Y933D01*
X218Y933D02*
X220Y933D01*
X416Y933D02*
X418Y933D01*
X425Y933D02*
X442Y933D01*
X459Y933D02*
X462Y933D01*
X470Y933D02*
X473Y933D01*
X992Y933D02*
X999Y933D01*
X0Y932D02*
X7Y932D01*
X218Y932D02*
X220Y932D01*
X416Y932D02*
X418Y932D01*
X427Y932D02*
X430Y932D01*
X458Y932D02*
X462Y932D01*
X470Y932D02*
X473Y932D01*
X992Y932D02*
X999Y932D01*
X0Y931D02*
X7Y931D01*
X218Y931D02*
X220Y931D01*
X416Y931D02*
X418Y931D01*
X427Y931D02*
X430Y931D01*
X457Y931D02*
X461Y931D01*
X470Y931D02*
X473Y931D01*
X992Y931D02*
X999Y931D01*
X0Y930D02*
X7Y930D01*
X218Y930D02*
X220Y930D01*
X416Y930D02*
X418Y930D01*
X427Y930D02*
X430Y930D01*
X457Y930D02*
X461Y930D01*
X470Y930D02*
X473Y930D01*
X992Y930D02*
X999Y930D01*
X0Y929D02*
X7Y929D01*
X218Y929D02*
X220Y929D01*
X416Y929D02*
X418Y929D01*
X427Y929D02*
X430Y929D01*
X456Y929D02*
X460Y929D01*
X470Y929D02*
X473Y929D01*
X992Y929D02*
X999Y929D01*
X0Y928D02*
X7Y928D01*
X218Y928D02*
X220Y928D01*
X416Y928D02*
X418Y928D01*
X427Y928D02*
X430Y928D01*
X456Y928D02*
X460Y928D01*
X470Y928D02*
X473Y928D01*
X992Y928D02*
X999Y928D01*
X0Y927D02*
X7Y927D01*
X218Y927D02*
X220Y927D01*
X416Y927D02*
X418Y927D01*
X427Y927D02*
X430Y927D01*
X455Y927D02*
X459Y927D01*
X470Y927D02*
X473Y927D01*
X992Y927D02*
X999Y927D01*
X0Y926D02*
X7Y926D01*
X218Y926D02*
X220Y926D01*
X416Y926D02*
X418Y926D01*
X427Y926D02*
X430Y926D01*
X454Y926D02*
X458Y926D01*
X470Y926D02*
X473Y926D01*
X992Y926D02*
X999Y926D01*
X0Y925D02*
X7Y925D01*
X218Y925D02*
X220Y925D01*
X416Y925D02*
X418Y925D01*
X427Y925D02*
X430Y925D01*
X454Y925D02*
X458Y925D01*
X470Y925D02*
X473Y925D01*
X992Y925D02*
X999Y925D01*
X0Y924D02*
X7Y924D01*
X218Y924D02*
X220Y924D01*
X416Y924D02*
X418Y924D01*
X427Y924D02*
X430Y924D01*
X454Y924D02*
X457Y924D01*
X470Y924D02*
X473Y924D01*
X992Y924D02*
X999Y924D01*
X0Y923D02*
X7Y923D01*
X218Y923D02*
X220Y923D01*
X416Y923D02*
X418Y923D01*
X427Y923D02*
X430Y923D01*
X454Y923D02*
X457Y923D01*
X470Y923D02*
X473Y923D01*
X992Y923D02*
X999Y923D01*
X0Y922D02*
X7Y922D01*
X218Y922D02*
X220Y922D01*
X416Y922D02*
X418Y922D01*
X428Y922D02*
X428Y922D01*
X455Y922D02*
X456Y922D01*
X471Y922D02*
X472Y922D01*
X992Y922D02*
X999Y922D01*
X0Y921D02*
X7Y921D01*
X218Y921D02*
X220Y921D01*
X416Y921D02*
X418Y921D01*
X992Y921D02*
X999Y921D01*
X0Y920D02*
X7Y920D01*
X218Y920D02*
X220Y920D01*
X416Y920D02*
X418Y920D01*
X992Y920D02*
X999Y920D01*
X0Y919D02*
X7Y919D01*
X218Y919D02*
X220Y919D01*
X416Y919D02*
X418Y919D01*
X992Y919D02*
X999Y919D01*
X0Y918D02*
X7Y918D01*
X218Y918D02*
X220Y918D01*
X416Y918D02*
X418Y918D01*
X992Y918D02*
X999Y918D01*
X0Y917D02*
X7Y917D01*
X218Y917D02*
X220Y917D01*
X416Y917D02*
X418Y917D01*
X992Y917D02*
X999Y917D01*
X0Y916D02*
X7Y916D01*
X218Y916D02*
X220Y916D01*
X416Y916D02*
X418Y916D01*
X992Y916D02*
X999Y916D01*
X0Y915D02*
X7Y915D01*
X218Y915D02*
X220Y915D01*
X416Y915D02*
X418Y915D01*
X992Y915D02*
X999Y915D01*
X0Y914D02*
X7Y914D01*
X218Y914D02*
X220Y914D01*
X416Y914D02*
X418Y914D01*
X992Y914D02*
X999Y914D01*
X0Y913D02*
X7Y913D01*
X218Y913D02*
X220Y913D01*
X416Y913D02*
X418Y913D01*
X992Y913D02*
X999Y913D01*
X0Y912D02*
X7Y912D01*
X218Y912D02*
X220Y912D01*
X416Y912D02*
X418Y912D01*
X992Y912D02*
X999Y912D01*
X0Y911D02*
X7Y911D01*
X218Y911D02*
X220Y911D01*
X416Y911D02*
X418Y911D01*
X992Y911D02*
X999Y911D01*
X0Y910D02*
X7Y910D01*
X218Y910D02*
X220Y910D01*
X416Y910D02*
X418Y910D01*
X992Y910D02*
X999Y910D01*
X0Y909D02*
X7Y909D01*
X218Y909D02*
X220Y909D01*
X416Y909D02*
X418Y909D01*
X992Y909D02*
X999Y909D01*
X0Y908D02*
X7Y908D01*
X218Y908D02*
X220Y908D01*
X416Y908D02*
X418Y908D01*
X992Y908D02*
X999Y908D01*
X0Y907D02*
X7Y907D01*
X218Y907D02*
X220Y907D01*
X416Y907D02*
X418Y907D01*
X992Y907D02*
X999Y907D01*
X0Y906D02*
X7Y906D01*
X218Y906D02*
X220Y906D01*
X416Y906D02*
X418Y906D01*
X992Y906D02*
X999Y906D01*
X0Y905D02*
X7Y905D01*
X218Y905D02*
X220Y905D01*
X416Y905D02*
X418Y905D01*
X992Y905D02*
X999Y905D01*
X0Y904D02*
X7Y904D01*
X218Y904D02*
X220Y904D01*
X416Y904D02*
X418Y904D01*
X992Y904D02*
X999Y904D01*
X0Y903D02*
X7Y903D01*
X218Y903D02*
X220Y903D01*
X416Y903D02*
X418Y903D01*
X992Y903D02*
X999Y903D01*
X0Y902D02*
X7Y902D01*
X218Y902D02*
X220Y902D01*
X416Y902D02*
X418Y902D01*
X992Y902D02*
X999Y902D01*
X0Y901D02*
X7Y901D01*
X218Y901D02*
X220Y901D01*
X416Y901D02*
X418Y901D01*
X992Y901D02*
X999Y901D01*
X0Y900D02*
X7Y900D01*
X218Y900D02*
X220Y900D01*
X416Y900D02*
X418Y900D01*
X992Y900D02*
X999Y900D01*
X0Y899D02*
X7Y899D01*
X218Y899D02*
X220Y899D01*
X416Y899D02*
X418Y899D01*
X992Y899D02*
X999Y899D01*
X0Y898D02*
X7Y898D01*
X218Y898D02*
X220Y898D01*
X416Y898D02*
X418Y898D01*
X992Y898D02*
X999Y898D01*
X0Y897D02*
X7Y897D01*
X218Y897D02*
X220Y897D01*
X416Y897D02*
X418Y897D01*
X992Y897D02*
X999Y897D01*
X0Y896D02*
X7Y896D01*
X218Y896D02*
X220Y896D01*
X416Y896D02*
X418Y896D01*
X992Y896D02*
X999Y896D01*
X0Y895D02*
X7Y895D01*
X218Y895D02*
X220Y895D01*
X416Y895D02*
X418Y895D01*
X992Y895D02*
X999Y895D01*
X0Y894D02*
X7Y894D01*
X218Y894D02*
X220Y894D01*
X416Y894D02*
X418Y894D01*
X992Y894D02*
X999Y894D01*
X0Y893D02*
X7Y893D01*
X218Y893D02*
X220Y893D01*
X416Y893D02*
X418Y893D01*
X992Y893D02*
X999Y893D01*
X0Y892D02*
X7Y892D01*
X218Y892D02*
X220Y892D01*
X416Y892D02*
X418Y892D01*
X992Y892D02*
X999Y892D01*
X0Y891D02*
X7Y891D01*
X218Y891D02*
X220Y891D01*
X416Y891D02*
X418Y891D01*
X992Y891D02*
X999Y891D01*
X0Y890D02*
X7Y890D01*
X218Y890D02*
X220Y890D01*
X294Y890D02*
X342Y890D01*
X416Y890D02*
X418Y890D01*
X992Y890D02*
X999Y890D01*
X0Y889D02*
X7Y889D01*
X218Y889D02*
X418Y889D01*
X992Y889D02*
X999Y889D01*
X0Y888D02*
X7Y888D01*
X218Y888D02*
X418Y888D01*
X992Y888D02*
X999Y888D01*
X0Y887D02*
X7Y887D01*
X218Y887D02*
X418Y887D01*
X992Y887D02*
X999Y887D01*
X0Y886D02*
X7Y886D01*
X992Y886D02*
X999Y886D01*
X0Y885D02*
X7Y885D01*
X992Y885D02*
X999Y885D01*
X0Y884D02*
X7Y884D01*
X992Y884D02*
X999Y884D01*
X0Y883D02*
X7Y883D01*
X992Y883D02*
X999Y883D01*
X0Y882D02*
X7Y882D01*
X992Y882D02*
X999Y882D01*
X0Y881D02*
X7Y881D01*
X992Y881D02*
X999Y881D01*
X0Y880D02*
X7Y880D01*
X992Y880D02*
X999Y880D01*
X0Y879D02*
X7Y879D01*
X992Y879D02*
X999Y879D01*
X0Y878D02*
X7Y878D01*
X992Y878D02*
X999Y878D01*
X0Y877D02*
X7Y877D01*
X992Y877D02*
X999Y877D01*
X0Y876D02*
X7Y876D01*
X992Y876D02*
X999Y876D01*
X0Y875D02*
X7Y875D01*
X992Y875D02*
X999Y875D01*
X0Y874D02*
X7Y874D01*
X992Y874D02*
X999Y874D01*
X0Y873D02*
X7Y873D01*
X992Y873D02*
X999Y873D01*
X0Y872D02*
X7Y872D01*
X992Y872D02*
X999Y872D01*
X0Y871D02*
X7Y871D01*
X992Y871D02*
X999Y871D01*
X0Y870D02*
X7Y870D01*
X992Y870D02*
X999Y870D01*
X0Y869D02*
X7Y869D01*
X992Y869D02*
X999Y869D01*
X0Y868D02*
X7Y868D01*
X992Y868D02*
X999Y868D01*
X0Y867D02*
X7Y867D01*
X992Y867D02*
X999Y867D01*
X0Y866D02*
X7Y866D01*
X992Y866D02*
X999Y866D01*
X0Y865D02*
X7Y865D01*
X992Y865D02*
X999Y865D01*
X0Y864D02*
X7Y864D01*
X992Y864D02*
X999Y864D01*
X0Y863D02*
X7Y863D01*
X992Y863D02*
X999Y863D01*
X0Y862D02*
X7Y862D01*
X992Y862D02*
X999Y862D01*
X0Y861D02*
X7Y861D01*
X992Y861D02*
X999Y861D01*
X0Y860D02*
X7Y860D01*
X992Y860D02*
X999Y860D01*
X0Y859D02*
X7Y859D01*
X992Y859D02*
X999Y859D01*
X0Y858D02*
X7Y858D01*
X992Y858D02*
X999Y858D01*
X0Y857D02*
X7Y857D01*
X992Y857D02*
X999Y857D01*
X0Y856D02*
X7Y856D01*
X992Y856D02*
X999Y856D01*
X0Y855D02*
X7Y855D01*
X992Y855D02*
X999Y855D01*
X0Y854D02*
X7Y854D01*
X992Y854D02*
X999Y854D01*
X0Y853D02*
X7Y853D01*
X992Y853D02*
X999Y853D01*
X0Y852D02*
X7Y852D01*
X992Y852D02*
X999Y852D01*
X0Y851D02*
X7Y851D01*
X992Y851D02*
X999Y851D01*
X0Y850D02*
X7Y850D01*
X992Y850D02*
X999Y850D01*
X0Y849D02*
X7Y849D01*
X992Y849D02*
X999Y849D01*
X0Y848D02*
X7Y848D01*
X992Y848D02*
X999Y848D01*
X0Y847D02*
X7Y847D01*
X992Y847D02*
X999Y847D01*
X0Y846D02*
X7Y846D01*
X992Y846D02*
X999Y846D01*
X0Y845D02*
X7Y845D01*
X992Y845D02*
X999Y845D01*
X0Y844D02*
X7Y844D01*
X992Y844D02*
X999Y844D01*
X0Y843D02*
X7Y843D01*
X992Y843D02*
X999Y843D01*
X0Y842D02*
X7Y842D01*
X992Y842D02*
X999Y842D01*
X0Y841D02*
X7Y841D01*
X992Y841D02*
X999Y841D01*
X0Y840D02*
X7Y840D01*
X992Y840D02*
X999Y840D01*
X0Y839D02*
X7Y839D01*
X992Y839D02*
X999Y839D01*
X0Y838D02*
X7Y838D01*
X992Y838D02*
X999Y838D01*
X0Y837D02*
X7Y837D01*
X992Y837D02*
X999Y837D01*
X0Y836D02*
X7Y836D01*
X992Y836D02*
X999Y836D01*
X0Y835D02*
X7Y835D01*
X992Y835D02*
X999Y835D01*
X0Y834D02*
X7Y834D01*
X992Y834D02*
X999Y834D01*
X0Y833D02*
X7Y833D01*
X992Y833D02*
X999Y833D01*
X0Y832D02*
X7Y832D01*
X992Y832D02*
X999Y832D01*
X0Y831D02*
X7Y831D01*
X992Y831D02*
X999Y831D01*
X0Y830D02*
X7Y830D01*
X992Y830D02*
X999Y830D01*
X0Y829D02*
X7Y829D01*
X992Y829D02*
X999Y829D01*
X0Y828D02*
X7Y828D01*
X992Y828D02*
X999Y828D01*
X0Y827D02*
X7Y827D01*
X992Y827D02*
X999Y827D01*
X0Y826D02*
X7Y826D01*
X992Y826D02*
X999Y826D01*
X0Y825D02*
X7Y825D01*
X992Y825D02*
X999Y825D01*
X0Y824D02*
X7Y824D01*
X992Y824D02*
X999Y824D01*
X0Y823D02*
X7Y823D01*
X992Y823D02*
X999Y823D01*
X0Y822D02*
X7Y822D01*
X992Y822D02*
X999Y822D01*
X0Y821D02*
X7Y821D01*
X738Y821D02*
X937Y821D01*
X992Y821D02*
X999Y821D01*
X0Y820D02*
X7Y820D01*
X738Y820D02*
X937Y820D01*
X992Y820D02*
X999Y820D01*
X0Y819D02*
X7Y819D01*
X481Y819D02*
X681Y819D01*
X738Y819D02*
X937Y819D01*
X992Y819D02*
X999Y819D01*
X0Y818D02*
X7Y818D01*
X481Y818D02*
X681Y818D01*
X738Y818D02*
X739Y818D01*
X813Y818D02*
X861Y818D01*
X935Y818D02*
X937Y818D01*
X992Y818D02*
X999Y818D01*
X0Y817D02*
X7Y817D01*
X481Y817D02*
X681Y817D01*
X738Y817D02*
X739Y817D01*
X935Y817D02*
X937Y817D01*
X992Y817D02*
X999Y817D01*
X0Y816D02*
X7Y816D01*
X481Y816D02*
X483Y816D01*
X557Y816D02*
X605Y816D01*
X679Y816D02*
X681Y816D01*
X738Y816D02*
X739Y816D01*
X935Y816D02*
X937Y816D01*
X992Y816D02*
X999Y816D01*
X0Y815D02*
X7Y815D01*
X481Y815D02*
X483Y815D01*
X679Y815D02*
X681Y815D01*
X738Y815D02*
X739Y815D01*
X935Y815D02*
X937Y815D01*
X992Y815D02*
X999Y815D01*
X0Y814D02*
X7Y814D01*
X481Y814D02*
X483Y814D01*
X679Y814D02*
X681Y814D01*
X738Y814D02*
X739Y814D01*
X935Y814D02*
X937Y814D01*
X992Y814D02*
X999Y814D01*
X0Y813D02*
X7Y813D01*
X481Y813D02*
X483Y813D01*
X679Y813D02*
X681Y813D01*
X738Y813D02*
X739Y813D01*
X935Y813D02*
X937Y813D01*
X992Y813D02*
X999Y813D01*
X0Y812D02*
X7Y812D01*
X481Y812D02*
X483Y812D01*
X679Y812D02*
X681Y812D01*
X738Y812D02*
X739Y812D01*
X935Y812D02*
X937Y812D01*
X992Y812D02*
X999Y812D01*
X0Y811D02*
X7Y811D01*
X481Y811D02*
X483Y811D01*
X679Y811D02*
X681Y811D01*
X738Y811D02*
X739Y811D01*
X935Y811D02*
X937Y811D01*
X992Y811D02*
X999Y811D01*
X0Y810D02*
X7Y810D01*
X481Y810D02*
X483Y810D01*
X679Y810D02*
X681Y810D01*
X738Y810D02*
X739Y810D01*
X935Y810D02*
X937Y810D01*
X992Y810D02*
X999Y810D01*
X0Y809D02*
X7Y809D01*
X481Y809D02*
X483Y809D01*
X679Y809D02*
X681Y809D01*
X738Y809D02*
X739Y809D01*
X935Y809D02*
X937Y809D01*
X992Y809D02*
X999Y809D01*
X0Y808D02*
X7Y808D01*
X481Y808D02*
X483Y808D01*
X679Y808D02*
X681Y808D01*
X738Y808D02*
X739Y808D01*
X935Y808D02*
X937Y808D01*
X992Y808D02*
X999Y808D01*
X0Y807D02*
X7Y807D01*
X481Y807D02*
X483Y807D01*
X679Y807D02*
X681Y807D01*
X738Y807D02*
X739Y807D01*
X935Y807D02*
X937Y807D01*
X992Y807D02*
X999Y807D01*
X0Y806D02*
X7Y806D01*
X481Y806D02*
X483Y806D01*
X679Y806D02*
X681Y806D01*
X738Y806D02*
X739Y806D01*
X935Y806D02*
X937Y806D01*
X992Y806D02*
X999Y806D01*
X0Y805D02*
X7Y805D01*
X481Y805D02*
X483Y805D01*
X679Y805D02*
X681Y805D01*
X738Y805D02*
X739Y805D01*
X935Y805D02*
X937Y805D01*
X992Y805D02*
X999Y805D01*
X0Y804D02*
X7Y804D01*
X481Y804D02*
X483Y804D01*
X679Y804D02*
X681Y804D01*
X738Y804D02*
X739Y804D01*
X935Y804D02*
X937Y804D01*
X992Y804D02*
X999Y804D01*
X0Y803D02*
X7Y803D01*
X481Y803D02*
X483Y803D01*
X679Y803D02*
X681Y803D01*
X738Y803D02*
X739Y803D01*
X935Y803D02*
X937Y803D01*
X992Y803D02*
X999Y803D01*
X0Y802D02*
X7Y802D01*
X481Y802D02*
X483Y802D01*
X679Y802D02*
X681Y802D01*
X738Y802D02*
X739Y802D01*
X935Y802D02*
X937Y802D01*
X992Y802D02*
X999Y802D01*
X0Y801D02*
X7Y801D01*
X481Y801D02*
X483Y801D01*
X679Y801D02*
X681Y801D01*
X738Y801D02*
X739Y801D01*
X935Y801D02*
X937Y801D01*
X992Y801D02*
X999Y801D01*
X0Y800D02*
X7Y800D01*
X481Y800D02*
X483Y800D01*
X679Y800D02*
X681Y800D01*
X738Y800D02*
X739Y800D01*
X935Y800D02*
X937Y800D01*
X992Y800D02*
X999Y800D01*
X0Y799D02*
X7Y799D01*
X481Y799D02*
X483Y799D01*
X679Y799D02*
X681Y799D01*
X738Y799D02*
X739Y799D01*
X935Y799D02*
X937Y799D01*
X992Y799D02*
X999Y799D01*
X0Y798D02*
X7Y798D01*
X481Y798D02*
X483Y798D01*
X679Y798D02*
X681Y798D01*
X738Y798D02*
X739Y798D01*
X935Y798D02*
X937Y798D01*
X992Y798D02*
X999Y798D01*
X0Y797D02*
X7Y797D01*
X481Y797D02*
X483Y797D01*
X679Y797D02*
X681Y797D01*
X738Y797D02*
X739Y797D01*
X935Y797D02*
X937Y797D01*
X992Y797D02*
X999Y797D01*
X0Y796D02*
X7Y796D01*
X481Y796D02*
X483Y796D01*
X679Y796D02*
X681Y796D01*
X738Y796D02*
X739Y796D01*
X935Y796D02*
X937Y796D01*
X992Y796D02*
X999Y796D01*
X0Y795D02*
X7Y795D01*
X481Y795D02*
X483Y795D01*
X679Y795D02*
X681Y795D01*
X738Y795D02*
X739Y795D01*
X935Y795D02*
X937Y795D01*
X992Y795D02*
X999Y795D01*
X0Y794D02*
X7Y794D01*
X481Y794D02*
X483Y794D01*
X679Y794D02*
X681Y794D01*
X738Y794D02*
X739Y794D01*
X935Y794D02*
X937Y794D01*
X992Y794D02*
X999Y794D01*
X0Y793D02*
X7Y793D01*
X481Y793D02*
X483Y793D01*
X679Y793D02*
X681Y793D01*
X738Y793D02*
X739Y793D01*
X935Y793D02*
X937Y793D01*
X992Y793D02*
X999Y793D01*
X0Y792D02*
X7Y792D01*
X481Y792D02*
X483Y792D01*
X679Y792D02*
X681Y792D01*
X738Y792D02*
X739Y792D01*
X935Y792D02*
X937Y792D01*
X992Y792D02*
X999Y792D01*
X0Y791D02*
X7Y791D01*
X481Y791D02*
X483Y791D01*
X679Y791D02*
X681Y791D01*
X738Y791D02*
X739Y791D01*
X935Y791D02*
X937Y791D01*
X992Y791D02*
X999Y791D01*
X0Y790D02*
X7Y790D01*
X481Y790D02*
X483Y790D01*
X679Y790D02*
X681Y790D01*
X738Y790D02*
X739Y790D01*
X935Y790D02*
X937Y790D01*
X992Y790D02*
X999Y790D01*
X0Y789D02*
X7Y789D01*
X481Y789D02*
X483Y789D01*
X679Y789D02*
X681Y789D01*
X738Y789D02*
X739Y789D01*
X935Y789D02*
X937Y789D01*
X992Y789D02*
X999Y789D01*
X0Y788D02*
X7Y788D01*
X481Y788D02*
X483Y788D01*
X679Y788D02*
X681Y788D01*
X738Y788D02*
X739Y788D01*
X935Y788D02*
X937Y788D01*
X992Y788D02*
X999Y788D01*
X0Y787D02*
X7Y787D01*
X481Y787D02*
X483Y787D01*
X679Y787D02*
X681Y787D01*
X738Y787D02*
X739Y787D01*
X935Y787D02*
X937Y787D01*
X992Y787D02*
X999Y787D01*
X0Y786D02*
X7Y786D01*
X481Y786D02*
X483Y786D01*
X679Y786D02*
X681Y786D01*
X738Y786D02*
X739Y786D01*
X935Y786D02*
X937Y786D01*
X992Y786D02*
X999Y786D01*
X0Y785D02*
X7Y785D01*
X481Y785D02*
X483Y785D01*
X679Y785D02*
X681Y785D01*
X738Y785D02*
X739Y785D01*
X935Y785D02*
X937Y785D01*
X992Y785D02*
X999Y785D01*
X0Y784D02*
X7Y784D01*
X481Y784D02*
X483Y784D01*
X679Y784D02*
X681Y784D01*
X738Y784D02*
X739Y784D01*
X935Y784D02*
X937Y784D01*
X992Y784D02*
X999Y784D01*
X0Y783D02*
X7Y783D01*
X481Y783D02*
X483Y783D01*
X679Y783D02*
X681Y783D01*
X738Y783D02*
X739Y783D01*
X935Y783D02*
X937Y783D01*
X992Y783D02*
X999Y783D01*
X0Y782D02*
X7Y782D01*
X481Y782D02*
X483Y782D01*
X679Y782D02*
X681Y782D01*
X738Y782D02*
X739Y782D01*
X935Y782D02*
X937Y782D01*
X992Y782D02*
X999Y782D01*
X0Y781D02*
X7Y781D01*
X481Y781D02*
X483Y781D01*
X679Y781D02*
X681Y781D01*
X738Y781D02*
X739Y781D01*
X935Y781D02*
X937Y781D01*
X992Y781D02*
X999Y781D01*
X0Y780D02*
X7Y780D01*
X481Y780D02*
X483Y780D01*
X679Y780D02*
X681Y780D01*
X738Y780D02*
X739Y780D01*
X935Y780D02*
X937Y780D01*
X992Y780D02*
X999Y780D01*
X0Y779D02*
X7Y779D01*
X481Y779D02*
X483Y779D01*
X679Y779D02*
X681Y779D01*
X738Y779D02*
X739Y779D01*
X935Y779D02*
X937Y779D01*
X992Y779D02*
X999Y779D01*
X0Y778D02*
X7Y778D01*
X481Y778D02*
X483Y778D01*
X679Y778D02*
X681Y778D01*
X738Y778D02*
X739Y778D01*
X935Y778D02*
X937Y778D01*
X992Y778D02*
X999Y778D01*
X0Y777D02*
X7Y777D01*
X481Y777D02*
X483Y777D01*
X679Y777D02*
X681Y777D01*
X738Y777D02*
X739Y777D01*
X935Y777D02*
X937Y777D01*
X992Y777D02*
X999Y777D01*
X0Y776D02*
X7Y776D01*
X481Y776D02*
X483Y776D01*
X679Y776D02*
X681Y776D01*
X738Y776D02*
X739Y776D01*
X935Y776D02*
X937Y776D01*
X992Y776D02*
X999Y776D01*
X0Y775D02*
X7Y775D01*
X481Y775D02*
X483Y775D01*
X679Y775D02*
X681Y775D01*
X738Y775D02*
X739Y775D01*
X935Y775D02*
X937Y775D01*
X992Y775D02*
X999Y775D01*
X0Y774D02*
X7Y774D01*
X481Y774D02*
X483Y774D01*
X679Y774D02*
X681Y774D01*
X738Y774D02*
X739Y774D01*
X935Y774D02*
X937Y774D01*
X992Y774D02*
X999Y774D01*
X0Y773D02*
X7Y773D01*
X481Y773D02*
X483Y773D01*
X679Y773D02*
X681Y773D01*
X738Y773D02*
X739Y773D01*
X935Y773D02*
X937Y773D01*
X992Y773D02*
X999Y773D01*
X0Y772D02*
X7Y772D01*
X481Y772D02*
X483Y772D01*
X679Y772D02*
X681Y772D01*
X738Y772D02*
X739Y772D01*
X935Y772D02*
X937Y772D01*
X992Y772D02*
X999Y772D01*
X0Y771D02*
X7Y771D01*
X481Y771D02*
X483Y771D01*
X679Y771D02*
X681Y771D01*
X738Y771D02*
X739Y771D01*
X935Y771D02*
X937Y771D01*
X992Y771D02*
X999Y771D01*
X0Y770D02*
X7Y770D01*
X481Y770D02*
X483Y770D01*
X679Y770D02*
X681Y770D01*
X738Y770D02*
X739Y770D01*
X935Y770D02*
X937Y770D01*
X992Y770D02*
X999Y770D01*
X0Y769D02*
X7Y769D01*
X481Y769D02*
X483Y769D01*
X679Y769D02*
X681Y769D01*
X738Y769D02*
X739Y769D01*
X935Y769D02*
X937Y769D01*
X992Y769D02*
X999Y769D01*
X0Y768D02*
X7Y768D01*
X481Y768D02*
X483Y768D01*
X679Y768D02*
X681Y768D01*
X738Y768D02*
X739Y768D01*
X935Y768D02*
X937Y768D01*
X992Y768D02*
X999Y768D01*
X0Y767D02*
X7Y767D01*
X481Y767D02*
X483Y767D01*
X679Y767D02*
X681Y767D01*
X738Y767D02*
X739Y767D01*
X935Y767D02*
X937Y767D01*
X992Y767D02*
X999Y767D01*
X0Y766D02*
X7Y766D01*
X481Y766D02*
X483Y766D01*
X679Y766D02*
X681Y766D01*
X738Y766D02*
X739Y766D01*
X935Y766D02*
X937Y766D01*
X992Y766D02*
X999Y766D01*
X0Y765D02*
X7Y765D01*
X481Y765D02*
X483Y765D01*
X679Y765D02*
X681Y765D01*
X738Y765D02*
X739Y765D01*
X935Y765D02*
X937Y765D01*
X992Y765D02*
X999Y765D01*
X0Y764D02*
X7Y764D01*
X481Y764D02*
X483Y764D01*
X679Y764D02*
X681Y764D01*
X738Y764D02*
X739Y764D01*
X935Y764D02*
X937Y764D01*
X992Y764D02*
X999Y764D01*
X0Y763D02*
X7Y763D01*
X481Y763D02*
X483Y763D01*
X679Y763D02*
X681Y763D01*
X738Y763D02*
X739Y763D01*
X935Y763D02*
X937Y763D01*
X992Y763D02*
X999Y763D01*
X0Y762D02*
X7Y762D01*
X481Y762D02*
X483Y762D01*
X679Y762D02*
X681Y762D01*
X738Y762D02*
X739Y762D01*
X935Y762D02*
X937Y762D01*
X992Y762D02*
X999Y762D01*
X0Y761D02*
X7Y761D01*
X481Y761D02*
X483Y761D01*
X679Y761D02*
X681Y761D01*
X738Y761D02*
X739Y761D01*
X935Y761D02*
X937Y761D01*
X992Y761D02*
X999Y761D01*
X0Y760D02*
X7Y760D01*
X481Y760D02*
X483Y760D01*
X679Y760D02*
X681Y760D01*
X738Y760D02*
X739Y760D01*
X935Y760D02*
X937Y760D01*
X992Y760D02*
X999Y760D01*
X0Y759D02*
X7Y759D01*
X481Y759D02*
X483Y759D01*
X679Y759D02*
X681Y759D01*
X738Y759D02*
X739Y759D01*
X935Y759D02*
X937Y759D01*
X992Y759D02*
X999Y759D01*
X0Y758D02*
X7Y758D01*
X481Y758D02*
X483Y758D01*
X679Y758D02*
X681Y758D01*
X738Y758D02*
X739Y758D01*
X935Y758D02*
X937Y758D01*
X992Y758D02*
X999Y758D01*
X0Y757D02*
X7Y757D01*
X481Y757D02*
X483Y757D01*
X679Y757D02*
X681Y757D01*
X738Y757D02*
X739Y757D01*
X935Y757D02*
X937Y757D01*
X992Y757D02*
X999Y757D01*
X0Y756D02*
X7Y756D01*
X481Y756D02*
X483Y756D01*
X679Y756D02*
X681Y756D01*
X738Y756D02*
X739Y756D01*
X935Y756D02*
X937Y756D01*
X992Y756D02*
X999Y756D01*
X0Y755D02*
X7Y755D01*
X481Y755D02*
X483Y755D01*
X679Y755D02*
X681Y755D01*
X738Y755D02*
X739Y755D01*
X935Y755D02*
X937Y755D01*
X992Y755D02*
X999Y755D01*
X0Y754D02*
X7Y754D01*
X481Y754D02*
X483Y754D01*
X679Y754D02*
X681Y754D01*
X738Y754D02*
X739Y754D01*
X935Y754D02*
X937Y754D01*
X992Y754D02*
X999Y754D01*
X0Y753D02*
X7Y753D01*
X481Y753D02*
X483Y753D01*
X679Y753D02*
X681Y753D01*
X738Y753D02*
X739Y753D01*
X935Y753D02*
X937Y753D01*
X992Y753D02*
X999Y753D01*
X0Y752D02*
X7Y752D01*
X481Y752D02*
X483Y752D01*
X679Y752D02*
X681Y752D01*
X738Y752D02*
X739Y752D01*
X935Y752D02*
X937Y752D01*
X992Y752D02*
X999Y752D01*
X0Y751D02*
X7Y751D01*
X481Y751D02*
X483Y751D01*
X679Y751D02*
X681Y751D01*
X738Y751D02*
X739Y751D01*
X935Y751D02*
X937Y751D01*
X992Y751D02*
X999Y751D01*
X0Y750D02*
X7Y750D01*
X481Y750D02*
X483Y750D01*
X679Y750D02*
X681Y750D01*
X738Y750D02*
X739Y750D01*
X935Y750D02*
X937Y750D01*
X992Y750D02*
X999Y750D01*
X0Y749D02*
X7Y749D01*
X481Y749D02*
X483Y749D01*
X679Y749D02*
X681Y749D01*
X738Y749D02*
X739Y749D01*
X935Y749D02*
X937Y749D01*
X992Y749D02*
X999Y749D01*
X0Y748D02*
X7Y748D01*
X481Y748D02*
X483Y748D01*
X679Y748D02*
X681Y748D01*
X738Y748D02*
X739Y748D01*
X935Y748D02*
X937Y748D01*
X992Y748D02*
X999Y748D01*
X0Y747D02*
X7Y747D01*
X481Y747D02*
X483Y747D01*
X679Y747D02*
X681Y747D01*
X738Y747D02*
X739Y747D01*
X935Y747D02*
X937Y747D01*
X992Y747D02*
X999Y747D01*
X0Y746D02*
X7Y746D01*
X481Y746D02*
X483Y746D01*
X679Y746D02*
X681Y746D01*
X738Y746D02*
X739Y746D01*
X935Y746D02*
X937Y746D01*
X992Y746D02*
X999Y746D01*
X0Y745D02*
X7Y745D01*
X481Y745D02*
X483Y745D01*
X679Y745D02*
X681Y745D01*
X738Y745D02*
X739Y745D01*
X935Y745D02*
X937Y745D01*
X992Y745D02*
X999Y745D01*
X0Y744D02*
X7Y744D01*
X481Y744D02*
X483Y744D01*
X679Y744D02*
X681Y744D01*
X738Y744D02*
X739Y744D01*
X935Y744D02*
X937Y744D01*
X992Y744D02*
X999Y744D01*
X0Y743D02*
X7Y743D01*
X481Y743D02*
X483Y743D01*
X679Y743D02*
X681Y743D01*
X738Y743D02*
X739Y743D01*
X935Y743D02*
X937Y743D01*
X992Y743D02*
X999Y743D01*
X0Y742D02*
X7Y742D01*
X481Y742D02*
X483Y742D01*
X679Y742D02*
X681Y742D01*
X738Y742D02*
X739Y742D01*
X935Y742D02*
X937Y742D01*
X992Y742D02*
X999Y742D01*
X0Y741D02*
X7Y741D01*
X481Y741D02*
X483Y741D01*
X679Y741D02*
X681Y741D01*
X738Y741D02*
X739Y741D01*
X935Y741D02*
X937Y741D01*
X992Y741D02*
X999Y741D01*
X0Y740D02*
X7Y740D01*
X481Y740D02*
X483Y740D01*
X679Y740D02*
X681Y740D01*
X738Y740D02*
X739Y740D01*
X935Y740D02*
X937Y740D01*
X992Y740D02*
X999Y740D01*
X0Y739D02*
X7Y739D01*
X481Y739D02*
X483Y739D01*
X679Y739D02*
X681Y739D01*
X738Y739D02*
X739Y739D01*
X935Y739D02*
X937Y739D01*
X992Y739D02*
X999Y739D01*
X0Y738D02*
X7Y738D01*
X481Y738D02*
X483Y738D01*
X679Y738D02*
X681Y738D01*
X738Y738D02*
X739Y738D01*
X935Y738D02*
X937Y738D01*
X992Y738D02*
X999Y738D01*
X0Y737D02*
X7Y737D01*
X481Y737D02*
X483Y737D01*
X679Y737D02*
X681Y737D01*
X738Y737D02*
X739Y737D01*
X935Y737D02*
X937Y737D01*
X992Y737D02*
X999Y737D01*
X0Y736D02*
X7Y736D01*
X481Y736D02*
X483Y736D01*
X679Y736D02*
X681Y736D01*
X738Y736D02*
X739Y736D01*
X935Y736D02*
X937Y736D01*
X992Y736D02*
X999Y736D01*
X0Y735D02*
X7Y735D01*
X481Y735D02*
X483Y735D01*
X679Y735D02*
X681Y735D01*
X738Y735D02*
X739Y735D01*
X813Y735D02*
X861Y735D01*
X935Y735D02*
X937Y735D01*
X992Y735D02*
X999Y735D01*
X0Y734D02*
X7Y734D01*
X481Y734D02*
X483Y734D01*
X679Y734D02*
X681Y734D01*
X738Y734D02*
X937Y734D01*
X992Y734D02*
X999Y734D01*
X0Y733D02*
X7Y733D01*
X30Y733D02*
X40Y733D01*
X56Y733D02*
X57Y733D01*
X481Y733D02*
X483Y733D01*
X679Y733D02*
X681Y733D01*
X738Y733D02*
X937Y733D01*
X992Y733D02*
X999Y733D01*
X0Y732D02*
X7Y732D01*
X30Y732D02*
X41Y732D01*
X54Y732D02*
X59Y732D01*
X481Y732D02*
X483Y732D01*
X557Y732D02*
X605Y732D01*
X679Y732D02*
X681Y732D01*
X738Y732D02*
X937Y732D01*
X992Y732D02*
X999Y732D01*
X0Y731D02*
X7Y731D01*
X30Y731D02*
X41Y731D01*
X53Y731D02*
X60Y731D01*
X481Y731D02*
X681Y731D01*
X992Y731D02*
X999Y731D01*
X0Y730D02*
X7Y730D01*
X30Y730D02*
X41Y730D01*
X52Y730D02*
X61Y730D01*
X481Y730D02*
X681Y730D01*
X992Y730D02*
X999Y730D01*
X0Y729D02*
X7Y729D01*
X30Y729D02*
X34Y729D01*
X52Y729D02*
X63Y729D01*
X481Y729D02*
X680Y729D01*
X992Y729D02*
X999Y729D01*
X0Y728D02*
X7Y728D01*
X30Y728D02*
X33Y728D01*
X52Y728D02*
X55Y728D01*
X58Y728D02*
X64Y728D01*
X992Y728D02*
X999Y728D01*
X0Y727D02*
X7Y727D01*
X30Y727D02*
X33Y727D01*
X52Y727D02*
X55Y727D01*
X59Y727D02*
X65Y727D01*
X992Y727D02*
X999Y727D01*
X0Y726D02*
X7Y726D01*
X30Y726D02*
X33Y726D01*
X52Y726D02*
X55Y726D01*
X61Y726D02*
X66Y726D01*
X992Y726D02*
X999Y726D01*
X0Y725D02*
X7Y725D01*
X30Y725D02*
X33Y725D01*
X52Y725D02*
X55Y725D01*
X62Y725D02*
X67Y725D01*
X992Y725D02*
X999Y725D01*
X0Y724D02*
X7Y724D01*
X30Y724D02*
X33Y724D01*
X52Y724D02*
X55Y724D01*
X63Y724D02*
X69Y724D01*
X992Y724D02*
X999Y724D01*
X0Y723D02*
X7Y723D01*
X30Y723D02*
X33Y723D01*
X52Y723D02*
X55Y723D01*
X64Y723D02*
X69Y723D01*
X992Y723D02*
X999Y723D01*
X0Y722D02*
X7Y722D01*
X30Y722D02*
X33Y722D01*
X52Y722D02*
X55Y722D01*
X65Y722D02*
X70Y722D01*
X992Y722D02*
X999Y722D01*
X0Y721D02*
X7Y721D01*
X30Y721D02*
X33Y721D01*
X52Y721D02*
X55Y721D01*
X67Y721D02*
X71Y721D01*
X992Y721D02*
X999Y721D01*
X0Y720D02*
X7Y720D01*
X30Y720D02*
X33Y720D01*
X52Y720D02*
X55Y720D01*
X67Y720D02*
X71Y720D01*
X992Y720D02*
X999Y720D01*
X0Y719D02*
X7Y719D01*
X30Y719D02*
X33Y719D01*
X52Y719D02*
X55Y719D01*
X68Y719D02*
X71Y719D01*
X992Y719D02*
X999Y719D01*
X0Y718D02*
X7Y718D01*
X30Y718D02*
X33Y718D01*
X52Y718D02*
X55Y718D01*
X68Y718D02*
X71Y718D01*
X554Y718D02*
X569Y718D01*
X587Y718D02*
X603Y718D01*
X759Y718D02*
X770Y718D01*
X785Y718D02*
X801Y718D01*
X992Y718D02*
X999Y718D01*
X0Y717D02*
X7Y717D01*
X30Y717D02*
X33Y717D01*
X52Y717D02*
X55Y717D01*
X68Y717D02*
X71Y717D01*
X553Y717D02*
X569Y717D01*
X585Y717D02*
X603Y717D01*
X759Y717D02*
X770Y717D01*
X783Y717D02*
X801Y717D01*
X992Y717D02*
X999Y717D01*
X0Y716D02*
X7Y716D01*
X30Y716D02*
X33Y716D01*
X52Y716D02*
X55Y716D01*
X68Y716D02*
X71Y716D01*
X553Y716D02*
X569Y716D01*
X585Y716D02*
X603Y716D01*
X759Y716D02*
X770Y716D01*
X782Y716D02*
X801Y716D01*
X992Y716D02*
X999Y716D01*
X0Y715D02*
X7Y715D01*
X22Y715D02*
X24Y715D01*
X30Y715D02*
X33Y715D01*
X52Y715D02*
X55Y715D01*
X61Y715D02*
X62Y715D01*
X68Y715D02*
X71Y715D01*
X554Y715D02*
X569Y715D01*
X584Y715D02*
X603Y715D01*
X759Y715D02*
X770Y715D01*
X782Y715D02*
X801Y715D01*
X992Y715D02*
X999Y715D01*
X0Y714D02*
X7Y714D01*
X22Y714D02*
X25Y714D01*
X30Y714D02*
X33Y714D01*
X52Y714D02*
X56Y714D01*
X60Y714D02*
X63Y714D01*
X68Y714D02*
X71Y714D01*
X566Y714D02*
X569Y714D01*
X584Y714D02*
X587Y714D01*
X600Y714D02*
X603Y714D01*
X759Y714D02*
X762Y714D01*
X781Y714D02*
X785Y714D01*
X797Y714D02*
X801Y714D01*
X992Y714D02*
X999Y714D01*
X0Y713D02*
X7Y713D01*
X22Y713D02*
X25Y713D01*
X30Y713D02*
X33Y713D01*
X52Y713D02*
X57Y713D01*
X60Y713D02*
X63Y713D01*
X68Y713D02*
X71Y713D01*
X566Y713D02*
X569Y713D01*
X583Y713D02*
X587Y713D01*
X600Y713D02*
X603Y713D01*
X759Y713D02*
X762Y713D01*
X781Y713D02*
X784Y713D01*
X797Y713D02*
X801Y713D01*
X992Y713D02*
X999Y713D01*
X0Y712D02*
X7Y712D01*
X22Y712D02*
X25Y712D01*
X30Y712D02*
X33Y712D01*
X53Y712D02*
X63Y712D01*
X68Y712D02*
X71Y712D01*
X566Y712D02*
X569Y712D01*
X583Y712D02*
X587Y712D01*
X600Y712D02*
X603Y712D01*
X759Y712D02*
X762Y712D01*
X781Y712D02*
X784Y712D01*
X797Y712D02*
X801Y712D01*
X992Y712D02*
X999Y712D01*
X0Y711D02*
X7Y711D01*
X22Y711D02*
X25Y711D01*
X30Y711D02*
X33Y711D01*
X54Y711D02*
X62Y711D01*
X68Y711D02*
X71Y711D01*
X566Y711D02*
X569Y711D01*
X583Y711D02*
X587Y711D01*
X600Y711D02*
X603Y711D01*
X759Y711D02*
X762Y711D01*
X781Y711D02*
X784Y711D01*
X797Y711D02*
X801Y711D01*
X992Y711D02*
X999Y711D01*
X0Y710D02*
X7Y710D01*
X22Y710D02*
X25Y710D01*
X30Y710D02*
X33Y710D01*
X55Y710D02*
X62Y710D01*
X68Y710D02*
X71Y710D01*
X566Y710D02*
X569Y710D01*
X583Y710D02*
X587Y710D01*
X600Y710D02*
X603Y710D01*
X759Y710D02*
X762Y710D01*
X781Y710D02*
X784Y710D01*
X797Y710D02*
X801Y710D01*
X992Y710D02*
X999Y710D01*
X0Y709D02*
X7Y709D01*
X22Y709D02*
X25Y709D01*
X30Y709D02*
X33Y709D01*
X56Y709D02*
X62Y709D01*
X68Y709D02*
X71Y709D01*
X566Y709D02*
X569Y709D01*
X583Y709D02*
X587Y709D01*
X600Y709D02*
X603Y709D01*
X759Y709D02*
X762Y709D01*
X781Y709D02*
X784Y709D01*
X797Y709D02*
X801Y709D01*
X992Y709D02*
X999Y709D01*
X0Y708D02*
X7Y708D01*
X22Y708D02*
X25Y708D01*
X30Y708D02*
X33Y708D01*
X57Y708D02*
X62Y708D01*
X68Y708D02*
X71Y708D01*
X566Y708D02*
X569Y708D01*
X584Y708D02*
X603Y708D01*
X759Y708D02*
X762Y708D01*
X781Y708D02*
X786Y708D01*
X797Y708D02*
X801Y708D01*
X992Y708D02*
X999Y708D01*
X0Y707D02*
X7Y707D01*
X22Y707D02*
X25Y707D01*
X30Y707D02*
X33Y707D01*
X57Y707D02*
X64Y707D01*
X68Y707D02*
X71Y707D01*
X566Y707D02*
X569Y707D01*
X584Y707D02*
X603Y707D01*
X759Y707D02*
X762Y707D01*
X782Y707D02*
X801Y707D01*
X992Y707D02*
X999Y707D01*
X0Y706D02*
X7Y706D01*
X22Y706D02*
X25Y706D01*
X30Y706D02*
X33Y706D01*
X57Y706D02*
X65Y706D01*
X68Y706D02*
X71Y706D01*
X566Y706D02*
X569Y706D01*
X585Y706D02*
X603Y706D01*
X759Y706D02*
X762Y706D01*
X782Y706D02*
X801Y706D01*
X992Y706D02*
X999Y706D01*
X0Y705D02*
X7Y705D01*
X22Y705D02*
X25Y705D01*
X29Y705D02*
X33Y705D01*
X56Y705D02*
X71Y705D01*
X565Y705D02*
X569Y705D01*
X586Y705D02*
X603Y705D01*
X759Y705D02*
X762Y705D01*
X784Y705D02*
X801Y705D01*
X992Y705D02*
X999Y705D01*
X0Y704D02*
X7Y704D01*
X22Y704D02*
X41Y704D01*
X52Y704D02*
X60Y704D01*
X62Y704D02*
X71Y704D01*
X555Y704D02*
X569Y704D01*
X590Y704D02*
X603Y704D01*
X759Y704D02*
X762Y704D01*
X785Y704D02*
X801Y704D01*
X992Y704D02*
X999Y704D01*
X0Y703D02*
X7Y703D01*
X22Y703D02*
X41Y703D01*
X52Y703D02*
X59Y703D01*
X63Y703D02*
X70Y703D01*
X554Y703D02*
X569Y703D01*
X592Y703D02*
X595Y703D01*
X600Y703D02*
X603Y703D01*
X759Y703D02*
X762Y703D01*
X789Y703D02*
X793Y703D01*
X797Y703D02*
X801Y703D01*
X992Y703D02*
X999Y703D01*
X0Y702D02*
X7Y702D01*
X22Y702D02*
X41Y702D01*
X52Y702D02*
X59Y702D01*
X64Y702D02*
X70Y702D01*
X554Y702D02*
X569Y702D01*
X591Y702D02*
X595Y702D01*
X600Y702D02*
X603Y702D01*
X759Y702D02*
X762Y702D01*
X789Y702D02*
X792Y702D01*
X797Y702D02*
X801Y702D01*
X992Y702D02*
X999Y702D01*
X0Y701D02*
X7Y701D01*
X23Y701D02*
X40Y701D01*
X53Y701D02*
X58Y701D01*
X66Y701D02*
X68Y701D01*
X553Y701D02*
X569Y701D01*
X590Y701D02*
X594Y701D01*
X600Y701D02*
X603Y701D01*
X759Y701D02*
X762Y701D01*
X788Y701D02*
X792Y701D01*
X797Y701D02*
X801Y701D01*
X992Y701D02*
X999Y701D01*
X0Y700D02*
X7Y700D01*
X553Y700D02*
X556Y700D01*
X590Y700D02*
X594Y700D01*
X600Y700D02*
X603Y700D01*
X751Y700D02*
X753Y700D01*
X759Y700D02*
X762Y700D01*
X787Y700D02*
X791Y700D01*
X797Y700D02*
X801Y700D01*
X992Y700D02*
X999Y700D01*
X0Y699D02*
X7Y699D01*
X553Y699D02*
X556Y699D01*
X589Y699D02*
X593Y699D01*
X600Y699D02*
X603Y699D01*
X751Y699D02*
X754Y699D01*
X759Y699D02*
X762Y699D01*
X787Y699D02*
X791Y699D01*
X797Y699D02*
X801Y699D01*
X992Y699D02*
X999Y699D01*
X0Y698D02*
X7Y698D01*
X553Y698D02*
X556Y698D01*
X589Y698D02*
X592Y698D01*
X600Y698D02*
X603Y698D01*
X751Y698D02*
X754Y698D01*
X759Y698D02*
X762Y698D01*
X786Y698D02*
X790Y698D01*
X797Y698D02*
X801Y698D01*
X992Y698D02*
X999Y698D01*
X0Y697D02*
X7Y697D01*
X553Y697D02*
X556Y697D01*
X588Y697D02*
X592Y697D01*
X600Y697D02*
X603Y697D01*
X751Y697D02*
X754Y697D01*
X759Y697D02*
X762Y697D01*
X786Y697D02*
X790Y697D01*
X797Y697D02*
X801Y697D01*
X992Y697D02*
X999Y697D01*
X0Y696D02*
X7Y696D01*
X553Y696D02*
X556Y696D01*
X587Y696D02*
X591Y696D01*
X600Y696D02*
X603Y696D01*
X751Y696D02*
X754Y696D01*
X759Y696D02*
X762Y696D01*
X785Y696D02*
X789Y696D01*
X797Y696D02*
X801Y696D01*
X992Y696D02*
X999Y696D01*
X0Y695D02*
X7Y695D01*
X553Y695D02*
X556Y695D01*
X587Y695D02*
X591Y695D01*
X600Y695D02*
X603Y695D01*
X751Y695D02*
X754Y695D01*
X759Y695D02*
X762Y695D01*
X784Y695D02*
X788Y695D01*
X797Y695D02*
X801Y695D01*
X992Y695D02*
X999Y695D01*
X0Y694D02*
X7Y694D01*
X553Y694D02*
X556Y694D01*
X586Y694D02*
X590Y694D01*
X600Y694D02*
X603Y694D01*
X751Y694D02*
X754Y694D01*
X759Y694D02*
X762Y694D01*
X784Y694D02*
X788Y694D01*
X797Y694D02*
X801Y694D01*
X992Y694D02*
X999Y694D01*
X0Y693D02*
X7Y693D01*
X553Y693D02*
X556Y693D01*
X586Y693D02*
X590Y693D01*
X600Y693D02*
X603Y693D01*
X751Y693D02*
X754Y693D01*
X759Y693D02*
X762Y693D01*
X783Y693D02*
X787Y693D01*
X797Y693D02*
X801Y693D01*
X992Y693D02*
X999Y693D01*
X0Y692D02*
X7Y692D01*
X553Y692D02*
X556Y692D01*
X571Y692D02*
X572Y692D01*
X585Y692D02*
X589Y692D01*
X600Y692D02*
X603Y692D01*
X751Y692D02*
X754Y692D01*
X759Y692D02*
X762Y692D01*
X783Y692D02*
X787Y692D01*
X797Y692D02*
X801Y692D01*
X992Y692D02*
X999Y692D01*
X0Y691D02*
X7Y691D01*
X553Y691D02*
X556Y691D01*
X568Y691D02*
X573Y691D01*
X584Y691D02*
X588Y691D01*
X600Y691D02*
X603Y691D01*
X751Y691D02*
X754Y691D01*
X759Y691D02*
X762Y691D01*
X782Y691D02*
X786Y691D01*
X797Y691D02*
X801Y691D01*
X992Y691D02*
X999Y691D01*
X0Y690D02*
X7Y690D01*
X553Y690D02*
X573Y690D01*
X584Y690D02*
X588Y690D01*
X600Y690D02*
X603Y690D01*
X751Y690D02*
X769Y690D01*
X782Y690D02*
X785Y690D01*
X797Y690D02*
X801Y690D01*
X992Y690D02*
X999Y690D01*
X0Y689D02*
X7Y689D01*
X554Y689D02*
X573Y689D01*
X583Y689D02*
X587Y689D01*
X600Y689D02*
X603Y689D01*
X751Y689D02*
X770Y689D01*
X781Y689D02*
X785Y689D01*
X797Y689D02*
X801Y689D01*
X992Y689D02*
X999Y689D01*
X0Y688D02*
X7Y688D01*
X554Y688D02*
X571Y688D01*
X583Y688D02*
X587Y688D01*
X600Y688D02*
X603Y688D01*
X751Y688D02*
X770Y688D01*
X781Y688D02*
X784Y688D01*
X797Y688D02*
X801Y688D01*
X992Y688D02*
X999Y688D01*
X0Y687D02*
X7Y687D01*
X555Y687D02*
X569Y687D01*
X584Y687D02*
X586Y687D01*
X601Y687D02*
X602Y687D01*
X751Y687D02*
X770Y687D01*
X781Y687D02*
X784Y687D01*
X798Y687D02*
X800Y687D01*
X992Y687D02*
X999Y687D01*
X0Y686D02*
X7Y686D01*
X992Y686D02*
X999Y686D01*
X0Y685D02*
X7Y685D01*
X992Y685D02*
X999Y685D01*
X0Y684D02*
X7Y684D01*
X66Y684D02*
X104Y684D01*
X992Y684D02*
X999Y684D01*
X0Y683D02*
X7Y683D01*
X69Y683D02*
X104Y683D01*
X992Y683D02*
X999Y683D01*
X0Y682D02*
X7Y682D01*
X69Y682D02*
X104Y682D01*
X992Y682D02*
X999Y682D01*
X0Y681D02*
X7Y681D01*
X69Y681D02*
X104Y681D01*
X992Y681D02*
X999Y681D01*
X0Y680D02*
X7Y680D01*
X69Y680D02*
X69Y680D01*
X102Y680D02*
X104Y680D01*
X992Y680D02*
X999Y680D01*
X0Y679D02*
X7Y679D01*
X69Y679D02*
X69Y679D01*
X102Y679D02*
X104Y679D01*
X992Y679D02*
X999Y679D01*
X0Y678D02*
X7Y678D01*
X69Y678D02*
X69Y678D01*
X102Y678D02*
X104Y678D01*
X992Y678D02*
X999Y678D01*
X0Y677D02*
X7Y677D01*
X69Y677D02*
X69Y677D01*
X102Y677D02*
X104Y677D01*
X992Y677D02*
X999Y677D01*
X0Y676D02*
X7Y676D01*
X69Y676D02*
X69Y676D01*
X102Y676D02*
X104Y676D01*
X992Y676D02*
X999Y676D01*
X0Y675D02*
X7Y675D01*
X69Y675D02*
X69Y675D01*
X102Y675D02*
X104Y675D01*
X992Y675D02*
X999Y675D01*
X0Y674D02*
X7Y674D01*
X69Y674D02*
X69Y674D01*
X102Y674D02*
X104Y674D01*
X992Y674D02*
X999Y674D01*
X0Y673D02*
X7Y673D01*
X69Y673D02*
X69Y673D01*
X102Y673D02*
X104Y673D01*
X992Y673D02*
X999Y673D01*
X0Y672D02*
X7Y672D01*
X69Y672D02*
X69Y672D01*
X102Y672D02*
X104Y672D01*
X992Y672D02*
X999Y672D01*
X0Y671D02*
X7Y671D01*
X69Y671D02*
X69Y671D01*
X102Y671D02*
X104Y671D01*
X741Y671D02*
X941Y671D01*
X992Y671D02*
X999Y671D01*
X0Y670D02*
X7Y670D01*
X69Y670D02*
X69Y670D01*
X102Y670D02*
X104Y670D01*
X741Y670D02*
X941Y670D01*
X992Y670D02*
X999Y670D01*
X0Y669D02*
X7Y669D01*
X69Y669D02*
X69Y669D01*
X102Y669D02*
X104Y669D01*
X741Y669D02*
X941Y669D01*
X992Y669D02*
X999Y669D01*
X0Y668D02*
X7Y668D01*
X69Y668D02*
X69Y668D01*
X102Y668D02*
X104Y668D01*
X741Y668D02*
X743Y668D01*
X817Y668D02*
X865Y668D01*
X939Y668D02*
X941Y668D01*
X992Y668D02*
X999Y668D01*
X0Y667D02*
X7Y667D01*
X69Y667D02*
X69Y667D01*
X102Y667D02*
X104Y667D01*
X741Y667D02*
X743Y667D01*
X939Y667D02*
X941Y667D01*
X992Y667D02*
X999Y667D01*
X0Y666D02*
X7Y666D01*
X69Y666D02*
X69Y666D01*
X102Y666D02*
X104Y666D01*
X741Y666D02*
X743Y666D01*
X939Y666D02*
X941Y666D01*
X992Y666D02*
X999Y666D01*
X0Y665D02*
X7Y665D01*
X69Y665D02*
X69Y665D01*
X102Y665D02*
X104Y665D01*
X741Y665D02*
X743Y665D01*
X939Y665D02*
X941Y665D01*
X992Y665D02*
X999Y665D01*
X0Y664D02*
X7Y664D01*
X69Y664D02*
X69Y664D01*
X102Y664D02*
X104Y664D01*
X741Y664D02*
X743Y664D01*
X939Y664D02*
X941Y664D01*
X992Y664D02*
X999Y664D01*
X0Y663D02*
X7Y663D01*
X69Y663D02*
X69Y663D01*
X102Y663D02*
X104Y663D01*
X741Y663D02*
X743Y663D01*
X939Y663D02*
X941Y663D01*
X992Y663D02*
X999Y663D01*
X0Y662D02*
X7Y662D01*
X69Y662D02*
X69Y662D01*
X102Y662D02*
X104Y662D01*
X741Y662D02*
X743Y662D01*
X939Y662D02*
X941Y662D01*
X992Y662D02*
X999Y662D01*
X0Y661D02*
X7Y661D01*
X69Y661D02*
X69Y661D01*
X102Y661D02*
X104Y661D01*
X741Y661D02*
X743Y661D01*
X939Y661D02*
X941Y661D01*
X992Y661D02*
X999Y661D01*
X0Y660D02*
X7Y660D01*
X69Y660D02*
X69Y660D01*
X102Y660D02*
X104Y660D01*
X741Y660D02*
X743Y660D01*
X939Y660D02*
X941Y660D01*
X992Y660D02*
X999Y660D01*
X0Y659D02*
X7Y659D01*
X69Y659D02*
X69Y659D01*
X102Y659D02*
X104Y659D01*
X741Y659D02*
X743Y659D01*
X939Y659D02*
X941Y659D01*
X992Y659D02*
X999Y659D01*
X0Y658D02*
X7Y658D01*
X69Y658D02*
X69Y658D01*
X102Y658D02*
X104Y658D01*
X741Y658D02*
X743Y658D01*
X939Y658D02*
X941Y658D01*
X992Y658D02*
X999Y658D01*
X0Y657D02*
X7Y657D01*
X69Y657D02*
X69Y657D01*
X102Y657D02*
X104Y657D01*
X741Y657D02*
X743Y657D01*
X939Y657D02*
X941Y657D01*
X992Y657D02*
X999Y657D01*
X0Y656D02*
X7Y656D01*
X69Y656D02*
X69Y656D01*
X102Y656D02*
X104Y656D01*
X741Y656D02*
X743Y656D01*
X939Y656D02*
X941Y656D01*
X992Y656D02*
X999Y656D01*
X0Y655D02*
X7Y655D01*
X69Y655D02*
X69Y655D01*
X102Y655D02*
X104Y655D01*
X741Y655D02*
X743Y655D01*
X939Y655D02*
X941Y655D01*
X992Y655D02*
X999Y655D01*
X0Y654D02*
X7Y654D01*
X69Y654D02*
X69Y654D01*
X102Y654D02*
X104Y654D01*
X741Y654D02*
X743Y654D01*
X939Y654D02*
X941Y654D01*
X992Y654D02*
X999Y654D01*
X0Y653D02*
X7Y653D01*
X69Y653D02*
X69Y653D01*
X102Y653D02*
X104Y653D01*
X741Y653D02*
X743Y653D01*
X939Y653D02*
X941Y653D01*
X992Y653D02*
X999Y653D01*
X0Y652D02*
X7Y652D01*
X69Y652D02*
X69Y652D01*
X102Y652D02*
X104Y652D01*
X741Y652D02*
X743Y652D01*
X939Y652D02*
X941Y652D01*
X992Y652D02*
X999Y652D01*
X0Y651D02*
X7Y651D01*
X69Y651D02*
X69Y651D01*
X102Y651D02*
X104Y651D01*
X741Y651D02*
X743Y651D01*
X939Y651D02*
X941Y651D01*
X992Y651D02*
X999Y651D01*
X0Y650D02*
X7Y650D01*
X69Y650D02*
X69Y650D01*
X102Y650D02*
X104Y650D01*
X741Y650D02*
X743Y650D01*
X939Y650D02*
X941Y650D01*
X992Y650D02*
X999Y650D01*
X0Y649D02*
X7Y649D01*
X69Y649D02*
X69Y649D01*
X102Y649D02*
X104Y649D01*
X741Y649D02*
X743Y649D01*
X939Y649D02*
X941Y649D01*
X992Y649D02*
X999Y649D01*
X0Y648D02*
X7Y648D01*
X69Y648D02*
X69Y648D01*
X102Y648D02*
X104Y648D01*
X741Y648D02*
X743Y648D01*
X939Y648D02*
X941Y648D01*
X992Y648D02*
X999Y648D01*
X0Y647D02*
X7Y647D01*
X69Y647D02*
X69Y647D01*
X102Y647D02*
X104Y647D01*
X741Y647D02*
X743Y647D01*
X939Y647D02*
X941Y647D01*
X992Y647D02*
X999Y647D01*
X0Y646D02*
X7Y646D01*
X69Y646D02*
X69Y646D01*
X102Y646D02*
X102Y646D01*
X741Y646D02*
X743Y646D01*
X939Y646D02*
X941Y646D01*
X992Y646D02*
X999Y646D01*
X0Y645D02*
X7Y645D01*
X69Y645D02*
X69Y645D01*
X741Y645D02*
X743Y645D01*
X939Y645D02*
X941Y645D01*
X992Y645D02*
X999Y645D01*
X0Y644D02*
X7Y644D01*
X69Y644D02*
X69Y644D01*
X741Y644D02*
X743Y644D01*
X939Y644D02*
X941Y644D01*
X992Y644D02*
X999Y644D01*
X0Y643D02*
X7Y643D01*
X69Y643D02*
X69Y643D01*
X741Y643D02*
X743Y643D01*
X939Y643D02*
X941Y643D01*
X992Y643D02*
X999Y643D01*
X0Y642D02*
X7Y642D01*
X66Y642D02*
X69Y642D01*
X741Y642D02*
X743Y642D01*
X939Y642D02*
X941Y642D01*
X992Y642D02*
X999Y642D01*
X0Y641D02*
X7Y641D01*
X66Y641D02*
X69Y641D01*
X741Y641D02*
X743Y641D01*
X939Y641D02*
X941Y641D01*
X992Y641D02*
X999Y641D01*
X0Y640D02*
X7Y640D01*
X66Y640D02*
X69Y640D01*
X741Y640D02*
X743Y640D01*
X939Y640D02*
X941Y640D01*
X992Y640D02*
X999Y640D01*
X0Y639D02*
X7Y639D01*
X66Y639D02*
X69Y639D01*
X741Y639D02*
X743Y639D01*
X939Y639D02*
X941Y639D01*
X992Y639D02*
X999Y639D01*
X0Y638D02*
X7Y638D01*
X66Y638D02*
X69Y638D01*
X741Y638D02*
X743Y638D01*
X939Y638D02*
X941Y638D01*
X992Y638D02*
X999Y638D01*
X0Y637D02*
X7Y637D01*
X66Y637D02*
X69Y637D01*
X741Y637D02*
X743Y637D01*
X939Y637D02*
X941Y637D01*
X992Y637D02*
X999Y637D01*
X0Y636D02*
X7Y636D01*
X66Y636D02*
X69Y636D01*
X741Y636D02*
X743Y636D01*
X939Y636D02*
X941Y636D01*
X992Y636D02*
X999Y636D01*
X0Y635D02*
X7Y635D01*
X66Y635D02*
X69Y635D01*
X741Y635D02*
X743Y635D01*
X939Y635D02*
X941Y635D01*
X992Y635D02*
X999Y635D01*
X0Y634D02*
X7Y634D01*
X66Y634D02*
X69Y634D01*
X741Y634D02*
X743Y634D01*
X939Y634D02*
X941Y634D01*
X992Y634D02*
X999Y634D01*
X0Y633D02*
X7Y633D01*
X66Y633D02*
X69Y633D01*
X741Y633D02*
X743Y633D01*
X939Y633D02*
X941Y633D01*
X992Y633D02*
X999Y633D01*
X0Y632D02*
X7Y632D01*
X66Y632D02*
X69Y632D01*
X741Y632D02*
X743Y632D01*
X939Y632D02*
X941Y632D01*
X992Y632D02*
X999Y632D01*
X0Y631D02*
X7Y631D01*
X66Y631D02*
X69Y631D01*
X741Y631D02*
X743Y631D01*
X939Y631D02*
X941Y631D01*
X992Y631D02*
X999Y631D01*
X0Y630D02*
X7Y630D01*
X66Y630D02*
X69Y630D01*
X741Y630D02*
X743Y630D01*
X939Y630D02*
X941Y630D01*
X992Y630D02*
X999Y630D01*
X0Y629D02*
X7Y629D01*
X66Y629D02*
X69Y629D01*
X741Y629D02*
X743Y629D01*
X939Y629D02*
X941Y629D01*
X992Y629D02*
X999Y629D01*
X0Y628D02*
X7Y628D01*
X66Y628D02*
X69Y628D01*
X741Y628D02*
X743Y628D01*
X939Y628D02*
X941Y628D01*
X992Y628D02*
X999Y628D01*
X0Y627D02*
X7Y627D01*
X66Y627D02*
X69Y627D01*
X741Y627D02*
X743Y627D01*
X939Y627D02*
X941Y627D01*
X992Y627D02*
X999Y627D01*
X0Y626D02*
X7Y626D01*
X66Y626D02*
X69Y626D01*
X741Y626D02*
X743Y626D01*
X939Y626D02*
X941Y626D01*
X992Y626D02*
X999Y626D01*
X0Y625D02*
X7Y625D01*
X66Y625D02*
X69Y625D01*
X741Y625D02*
X743Y625D01*
X939Y625D02*
X941Y625D01*
X992Y625D02*
X999Y625D01*
X0Y624D02*
X7Y624D01*
X66Y624D02*
X69Y624D01*
X741Y624D02*
X743Y624D01*
X939Y624D02*
X941Y624D01*
X992Y624D02*
X999Y624D01*
X0Y623D02*
X7Y623D01*
X66Y623D02*
X69Y623D01*
X741Y623D02*
X743Y623D01*
X939Y623D02*
X941Y623D01*
X992Y623D02*
X999Y623D01*
X0Y622D02*
X7Y622D01*
X66Y622D02*
X69Y622D01*
X741Y622D02*
X743Y622D01*
X939Y622D02*
X941Y622D01*
X992Y622D02*
X999Y622D01*
X0Y621D02*
X7Y621D01*
X66Y621D02*
X69Y621D01*
X741Y621D02*
X743Y621D01*
X939Y621D02*
X941Y621D01*
X992Y621D02*
X999Y621D01*
X0Y620D02*
X7Y620D01*
X66Y620D02*
X69Y620D01*
X741Y620D02*
X743Y620D01*
X939Y620D02*
X941Y620D01*
X992Y620D02*
X999Y620D01*
X0Y619D02*
X7Y619D01*
X66Y619D02*
X69Y619D01*
X741Y619D02*
X743Y619D01*
X939Y619D02*
X941Y619D01*
X992Y619D02*
X999Y619D01*
X0Y618D02*
X7Y618D01*
X66Y618D02*
X69Y618D01*
X741Y618D02*
X743Y618D01*
X939Y618D02*
X941Y618D01*
X992Y618D02*
X999Y618D01*
X0Y617D02*
X7Y617D01*
X66Y617D02*
X69Y617D01*
X741Y617D02*
X743Y617D01*
X939Y617D02*
X941Y617D01*
X992Y617D02*
X999Y617D01*
X0Y616D02*
X7Y616D01*
X66Y616D02*
X69Y616D01*
X741Y616D02*
X743Y616D01*
X939Y616D02*
X941Y616D01*
X992Y616D02*
X999Y616D01*
X0Y615D02*
X7Y615D01*
X66Y615D02*
X69Y615D01*
X741Y615D02*
X743Y615D01*
X939Y615D02*
X941Y615D01*
X992Y615D02*
X999Y615D01*
X0Y614D02*
X7Y614D01*
X66Y614D02*
X69Y614D01*
X741Y614D02*
X743Y614D01*
X939Y614D02*
X941Y614D01*
X992Y614D02*
X999Y614D01*
X0Y613D02*
X7Y613D01*
X66Y613D02*
X69Y613D01*
X741Y613D02*
X743Y613D01*
X939Y613D02*
X941Y613D01*
X992Y613D02*
X999Y613D01*
X0Y612D02*
X7Y612D01*
X66Y612D02*
X69Y612D01*
X741Y612D02*
X743Y612D01*
X939Y612D02*
X941Y612D01*
X992Y612D02*
X999Y612D01*
X0Y611D02*
X7Y611D01*
X66Y611D02*
X69Y611D01*
X741Y611D02*
X743Y611D01*
X939Y611D02*
X941Y611D01*
X992Y611D02*
X999Y611D01*
X0Y610D02*
X7Y610D01*
X66Y610D02*
X69Y610D01*
X741Y610D02*
X743Y610D01*
X939Y610D02*
X941Y610D01*
X992Y610D02*
X999Y610D01*
X0Y609D02*
X7Y609D01*
X66Y609D02*
X69Y609D01*
X741Y609D02*
X743Y609D01*
X939Y609D02*
X941Y609D01*
X992Y609D02*
X999Y609D01*
X0Y608D02*
X7Y608D01*
X69Y608D02*
X69Y608D01*
X741Y608D02*
X743Y608D01*
X939Y608D02*
X941Y608D01*
X992Y608D02*
X999Y608D01*
X0Y607D02*
X7Y607D01*
X69Y607D02*
X69Y607D01*
X741Y607D02*
X743Y607D01*
X939Y607D02*
X941Y607D01*
X992Y607D02*
X999Y607D01*
X0Y606D02*
X7Y606D01*
X69Y606D02*
X69Y606D01*
X741Y606D02*
X743Y606D01*
X939Y606D02*
X941Y606D01*
X992Y606D02*
X999Y606D01*
X0Y605D02*
X7Y605D01*
X69Y605D02*
X69Y605D01*
X102Y605D02*
X102Y605D01*
X741Y605D02*
X743Y605D01*
X939Y605D02*
X941Y605D01*
X992Y605D02*
X999Y605D01*
X0Y604D02*
X7Y604D01*
X69Y604D02*
X69Y604D01*
X102Y604D02*
X104Y604D01*
X741Y604D02*
X743Y604D01*
X939Y604D02*
X941Y604D01*
X992Y604D02*
X999Y604D01*
X0Y603D02*
X7Y603D01*
X69Y603D02*
X69Y603D01*
X102Y603D02*
X104Y603D01*
X741Y603D02*
X743Y603D01*
X939Y603D02*
X941Y603D01*
X992Y603D02*
X999Y603D01*
X0Y602D02*
X7Y602D01*
X69Y602D02*
X69Y602D01*
X102Y602D02*
X104Y602D01*
X741Y602D02*
X743Y602D01*
X939Y602D02*
X941Y602D01*
X992Y602D02*
X999Y602D01*
X0Y601D02*
X7Y601D01*
X69Y601D02*
X69Y601D01*
X102Y601D02*
X104Y601D01*
X741Y601D02*
X743Y601D01*
X939Y601D02*
X941Y601D01*
X992Y601D02*
X999Y601D01*
X0Y600D02*
X7Y600D01*
X69Y600D02*
X69Y600D01*
X102Y600D02*
X104Y600D01*
X741Y600D02*
X743Y600D01*
X939Y600D02*
X941Y600D01*
X992Y600D02*
X999Y600D01*
X0Y599D02*
X7Y599D01*
X69Y599D02*
X69Y599D01*
X102Y599D02*
X104Y599D01*
X741Y599D02*
X743Y599D01*
X939Y599D02*
X941Y599D01*
X992Y599D02*
X999Y599D01*
X0Y598D02*
X7Y598D01*
X69Y598D02*
X69Y598D01*
X102Y598D02*
X104Y598D01*
X741Y598D02*
X743Y598D01*
X939Y598D02*
X941Y598D01*
X992Y598D02*
X999Y598D01*
X0Y597D02*
X7Y597D01*
X69Y597D02*
X69Y597D01*
X102Y597D02*
X104Y597D01*
X741Y597D02*
X743Y597D01*
X939Y597D02*
X941Y597D01*
X992Y597D02*
X999Y597D01*
X0Y596D02*
X7Y596D01*
X69Y596D02*
X69Y596D01*
X102Y596D02*
X104Y596D01*
X741Y596D02*
X743Y596D01*
X939Y596D02*
X941Y596D01*
X992Y596D02*
X999Y596D01*
X0Y595D02*
X7Y595D01*
X69Y595D02*
X69Y595D01*
X102Y595D02*
X104Y595D01*
X741Y595D02*
X743Y595D01*
X939Y595D02*
X941Y595D01*
X992Y595D02*
X999Y595D01*
X0Y594D02*
X7Y594D01*
X69Y594D02*
X69Y594D01*
X102Y594D02*
X104Y594D01*
X741Y594D02*
X743Y594D01*
X939Y594D02*
X941Y594D01*
X992Y594D02*
X999Y594D01*
X0Y593D02*
X7Y593D01*
X69Y593D02*
X69Y593D01*
X102Y593D02*
X104Y593D01*
X741Y593D02*
X743Y593D01*
X939Y593D02*
X941Y593D01*
X992Y593D02*
X999Y593D01*
X0Y592D02*
X7Y592D01*
X69Y592D02*
X69Y592D01*
X102Y592D02*
X104Y592D01*
X741Y592D02*
X743Y592D01*
X939Y592D02*
X941Y592D01*
X992Y592D02*
X999Y592D01*
X0Y591D02*
X7Y591D01*
X69Y591D02*
X69Y591D01*
X102Y591D02*
X104Y591D01*
X741Y591D02*
X743Y591D01*
X939Y591D02*
X941Y591D01*
X992Y591D02*
X999Y591D01*
X0Y590D02*
X7Y590D01*
X69Y590D02*
X69Y590D01*
X102Y590D02*
X104Y590D01*
X741Y590D02*
X743Y590D01*
X939Y590D02*
X941Y590D01*
X992Y590D02*
X999Y590D01*
X0Y589D02*
X7Y589D01*
X69Y589D02*
X69Y589D01*
X102Y589D02*
X104Y589D01*
X741Y589D02*
X743Y589D01*
X939Y589D02*
X941Y589D01*
X992Y589D02*
X999Y589D01*
X0Y588D02*
X7Y588D01*
X69Y588D02*
X69Y588D01*
X102Y588D02*
X104Y588D01*
X741Y588D02*
X743Y588D01*
X939Y588D02*
X941Y588D01*
X992Y588D02*
X999Y588D01*
X0Y587D02*
X7Y587D01*
X69Y587D02*
X69Y587D01*
X102Y587D02*
X104Y587D01*
X741Y587D02*
X743Y587D01*
X939Y587D02*
X941Y587D01*
X992Y587D02*
X999Y587D01*
X0Y586D02*
X7Y586D01*
X69Y586D02*
X69Y586D01*
X102Y586D02*
X104Y586D01*
X741Y586D02*
X743Y586D01*
X939Y586D02*
X941Y586D01*
X992Y586D02*
X999Y586D01*
X0Y585D02*
X7Y585D01*
X69Y585D02*
X69Y585D01*
X102Y585D02*
X104Y585D01*
X741Y585D02*
X743Y585D01*
X817Y585D02*
X865Y585D01*
X939Y585D02*
X941Y585D01*
X992Y585D02*
X999Y585D01*
X0Y584D02*
X7Y584D01*
X69Y584D02*
X69Y584D01*
X102Y584D02*
X104Y584D01*
X741Y584D02*
X941Y584D01*
X992Y584D02*
X999Y584D01*
X0Y583D02*
X7Y583D01*
X69Y583D02*
X69Y583D01*
X102Y583D02*
X104Y583D01*
X741Y583D02*
X941Y583D01*
X992Y583D02*
X999Y583D01*
X0Y582D02*
X7Y582D01*
X69Y582D02*
X69Y582D01*
X102Y582D02*
X104Y582D01*
X741Y582D02*
X941Y582D01*
X992Y582D02*
X999Y582D01*
X0Y581D02*
X7Y581D01*
X69Y581D02*
X69Y581D01*
X102Y581D02*
X104Y581D01*
X992Y581D02*
X999Y581D01*
X0Y580D02*
X7Y580D01*
X69Y580D02*
X69Y580D01*
X102Y580D02*
X104Y580D01*
X992Y580D02*
X999Y580D01*
X0Y579D02*
X7Y579D01*
X69Y579D02*
X69Y579D01*
X102Y579D02*
X104Y579D01*
X992Y579D02*
X999Y579D01*
X0Y578D02*
X7Y578D01*
X69Y578D02*
X69Y578D01*
X102Y578D02*
X104Y578D01*
X992Y578D02*
X999Y578D01*
X0Y577D02*
X7Y577D01*
X69Y577D02*
X69Y577D01*
X102Y577D02*
X104Y577D01*
X992Y577D02*
X999Y577D01*
X0Y576D02*
X7Y576D01*
X69Y576D02*
X69Y576D01*
X102Y576D02*
X104Y576D01*
X992Y576D02*
X999Y576D01*
X0Y575D02*
X7Y575D01*
X69Y575D02*
X69Y575D01*
X102Y575D02*
X104Y575D01*
X992Y575D02*
X999Y575D01*
X0Y574D02*
X7Y574D01*
X69Y574D02*
X69Y574D01*
X102Y574D02*
X104Y574D01*
X992Y574D02*
X999Y574D01*
X0Y573D02*
X7Y573D01*
X69Y573D02*
X69Y573D01*
X102Y573D02*
X104Y573D01*
X872Y573D02*
X890Y573D01*
X904Y573D02*
X920Y573D01*
X992Y573D02*
X999Y573D01*
X0Y572D02*
X7Y572D01*
X69Y572D02*
X69Y572D01*
X102Y572D02*
X104Y572D01*
X871Y572D02*
X890Y572D01*
X903Y572D02*
X920Y572D01*
X992Y572D02*
X999Y572D01*
X0Y571D02*
X7Y571D01*
X69Y571D02*
X69Y571D01*
X102Y571D02*
X104Y571D01*
X871Y571D02*
X890Y571D01*
X902Y571D02*
X920Y571D01*
X992Y571D02*
X999Y571D01*
X0Y570D02*
X7Y570D01*
X69Y570D02*
X104Y570D01*
X871Y570D02*
X889Y570D01*
X901Y570D02*
X920Y570D01*
X992Y570D02*
X999Y570D01*
X0Y569D02*
X7Y569D01*
X69Y569D02*
X104Y569D01*
X870Y569D02*
X874Y569D01*
X901Y569D02*
X905Y569D01*
X917Y569D02*
X920Y569D01*
X992Y569D02*
X999Y569D01*
X0Y568D02*
X7Y568D01*
X69Y568D02*
X104Y568D01*
X472Y568D02*
X672Y568D01*
X870Y568D02*
X874Y568D01*
X901Y568D02*
X904Y568D01*
X917Y568D02*
X920Y568D01*
X992Y568D02*
X999Y568D01*
X0Y567D02*
X7Y567D01*
X66Y567D02*
X104Y567D01*
X472Y567D02*
X672Y567D01*
X870Y567D02*
X874Y567D01*
X901Y567D02*
X904Y567D01*
X917Y567D02*
X920Y567D01*
X992Y567D02*
X999Y567D01*
X0Y566D02*
X7Y566D01*
X472Y566D02*
X672Y566D01*
X870Y566D02*
X874Y566D01*
X901Y566D02*
X904Y566D01*
X917Y566D02*
X920Y566D01*
X992Y566D02*
X999Y566D01*
X0Y565D02*
X7Y565D01*
X472Y565D02*
X474Y565D01*
X548Y565D02*
X596Y565D01*
X670Y565D02*
X672Y565D01*
X870Y565D02*
X874Y565D01*
X901Y565D02*
X904Y565D01*
X917Y565D02*
X920Y565D01*
X992Y565D02*
X999Y565D01*
X0Y564D02*
X7Y564D01*
X472Y564D02*
X474Y564D01*
X670Y564D02*
X672Y564D01*
X870Y564D02*
X874Y564D01*
X901Y564D02*
X904Y564D01*
X917Y564D02*
X920Y564D01*
X992Y564D02*
X999Y564D01*
X0Y563D02*
X7Y563D01*
X472Y563D02*
X474Y563D01*
X670Y563D02*
X672Y563D01*
X870Y563D02*
X874Y563D01*
X901Y563D02*
X920Y563D01*
X992Y563D02*
X999Y563D01*
X0Y562D02*
X7Y562D01*
X472Y562D02*
X474Y562D01*
X670Y562D02*
X672Y562D01*
X870Y562D02*
X874Y562D01*
X902Y562D02*
X920Y562D01*
X992Y562D02*
X999Y562D01*
X0Y561D02*
X7Y561D01*
X472Y561D02*
X474Y561D01*
X670Y561D02*
X672Y561D01*
X871Y561D02*
X874Y561D01*
X902Y561D02*
X920Y561D01*
X992Y561D02*
X999Y561D01*
X0Y560D02*
X7Y560D01*
X472Y560D02*
X474Y560D01*
X670Y560D02*
X672Y560D01*
X871Y560D02*
X875Y560D01*
X904Y560D02*
X920Y560D01*
X992Y560D02*
X999Y560D01*
X0Y559D02*
X7Y559D01*
X472Y559D02*
X474Y559D01*
X670Y559D02*
X672Y559D01*
X871Y559D02*
X885Y559D01*
X907Y559D02*
X920Y559D01*
X992Y559D02*
X999Y559D01*
X0Y558D02*
X7Y558D01*
X472Y558D02*
X474Y558D01*
X670Y558D02*
X672Y558D01*
X872Y558D02*
X886Y558D01*
X909Y558D02*
X913Y558D01*
X917Y558D02*
X920Y558D01*
X992Y558D02*
X999Y558D01*
X0Y557D02*
X7Y557D01*
X472Y557D02*
X474Y557D01*
X670Y557D02*
X672Y557D01*
X872Y557D02*
X886Y557D01*
X908Y557D02*
X912Y557D01*
X917Y557D02*
X920Y557D01*
X992Y557D02*
X999Y557D01*
X0Y556D02*
X7Y556D01*
X472Y556D02*
X474Y556D01*
X670Y556D02*
X672Y556D01*
X871Y556D02*
X885Y556D01*
X908Y556D02*
X912Y556D01*
X917Y556D02*
X920Y556D01*
X992Y556D02*
X999Y556D01*
X0Y555D02*
X7Y555D01*
X472Y555D02*
X474Y555D01*
X670Y555D02*
X672Y555D01*
X871Y555D02*
X875Y555D01*
X907Y555D02*
X911Y555D01*
X917Y555D02*
X920Y555D01*
X992Y555D02*
X999Y555D01*
X0Y554D02*
X7Y554D01*
X472Y554D02*
X474Y554D01*
X670Y554D02*
X672Y554D01*
X871Y554D02*
X874Y554D01*
X906Y554D02*
X910Y554D01*
X917Y554D02*
X920Y554D01*
X992Y554D02*
X999Y554D01*
X0Y553D02*
X7Y553D01*
X472Y553D02*
X474Y553D01*
X670Y553D02*
X672Y553D01*
X870Y553D02*
X874Y553D01*
X906Y553D02*
X910Y553D01*
X917Y553D02*
X920Y553D01*
X992Y553D02*
X999Y553D01*
X0Y552D02*
X7Y552D01*
X472Y552D02*
X474Y552D01*
X670Y552D02*
X672Y552D01*
X870Y552D02*
X874Y552D01*
X905Y552D02*
X909Y552D01*
X917Y552D02*
X920Y552D01*
X992Y552D02*
X999Y552D01*
X0Y551D02*
X7Y551D01*
X472Y551D02*
X474Y551D01*
X670Y551D02*
X672Y551D01*
X870Y551D02*
X874Y551D01*
X905Y551D02*
X909Y551D01*
X917Y551D02*
X920Y551D01*
X992Y551D02*
X999Y551D01*
X0Y550D02*
X7Y550D01*
X472Y550D02*
X474Y550D01*
X670Y550D02*
X672Y550D01*
X870Y550D02*
X874Y550D01*
X904Y550D02*
X908Y550D01*
X917Y550D02*
X920Y550D01*
X992Y550D02*
X999Y550D01*
X0Y549D02*
X7Y549D01*
X472Y549D02*
X474Y549D01*
X670Y549D02*
X672Y549D01*
X870Y549D02*
X874Y549D01*
X904Y549D02*
X907Y549D01*
X917Y549D02*
X920Y549D01*
X992Y549D02*
X999Y549D01*
X0Y548D02*
X7Y548D01*
X472Y548D02*
X474Y548D01*
X670Y548D02*
X672Y548D01*
X870Y548D02*
X874Y548D01*
X903Y548D02*
X907Y548D01*
X917Y548D02*
X920Y548D01*
X992Y548D02*
X999Y548D01*
X0Y547D02*
X7Y547D01*
X472Y547D02*
X474Y547D01*
X670Y547D02*
X672Y547D01*
X870Y547D02*
X874Y547D01*
X902Y547D02*
X906Y547D01*
X917Y547D02*
X920Y547D01*
X992Y547D02*
X999Y547D01*
X0Y546D02*
X7Y546D01*
X472Y546D02*
X474Y546D01*
X670Y546D02*
X672Y546D01*
X870Y546D02*
X874Y546D01*
X902Y546D02*
X906Y546D01*
X917Y546D02*
X920Y546D01*
X992Y546D02*
X999Y546D01*
X0Y545D02*
X7Y545D01*
X472Y545D02*
X474Y545D01*
X670Y545D02*
X672Y545D01*
X871Y545D02*
X889Y545D01*
X901Y545D02*
X905Y545D01*
X917Y545D02*
X920Y545D01*
X992Y545D02*
X999Y545D01*
X0Y544D02*
X7Y544D01*
X472Y544D02*
X474Y544D01*
X670Y544D02*
X672Y544D01*
X871Y544D02*
X890Y544D01*
X901Y544D02*
X905Y544D01*
X917Y544D02*
X920Y544D01*
X992Y544D02*
X999Y544D01*
X0Y543D02*
X7Y543D01*
X472Y543D02*
X474Y543D01*
X670Y543D02*
X672Y543D01*
X871Y543D02*
X890Y543D01*
X901Y543D02*
X904Y543D01*
X917Y543D02*
X920Y543D01*
X992Y543D02*
X999Y543D01*
X0Y542D02*
X7Y542D01*
X472Y542D02*
X474Y542D01*
X670Y542D02*
X672Y542D01*
X873Y542D02*
X890Y542D01*
X901Y542D02*
X903Y542D01*
X918Y542D02*
X920Y542D01*
X992Y542D02*
X999Y542D01*
X0Y541D02*
X7Y541D01*
X472Y541D02*
X474Y541D01*
X670Y541D02*
X672Y541D01*
X992Y541D02*
X999Y541D01*
X0Y540D02*
X7Y540D01*
X472Y540D02*
X474Y540D01*
X670Y540D02*
X672Y540D01*
X992Y540D02*
X999Y540D01*
X0Y539D02*
X7Y539D01*
X472Y539D02*
X474Y539D01*
X670Y539D02*
X672Y539D01*
X992Y539D02*
X999Y539D01*
X0Y538D02*
X7Y538D01*
X472Y538D02*
X474Y538D01*
X670Y538D02*
X672Y538D01*
X992Y538D02*
X999Y538D01*
X0Y537D02*
X7Y537D01*
X472Y537D02*
X474Y537D01*
X670Y537D02*
X672Y537D01*
X992Y537D02*
X999Y537D01*
X0Y536D02*
X7Y536D01*
X472Y536D02*
X474Y536D01*
X670Y536D02*
X672Y536D01*
X992Y536D02*
X999Y536D01*
X0Y535D02*
X7Y535D01*
X472Y535D02*
X474Y535D01*
X670Y535D02*
X672Y535D01*
X992Y535D02*
X999Y535D01*
X0Y534D02*
X7Y534D01*
X472Y534D02*
X474Y534D01*
X670Y534D02*
X672Y534D01*
X992Y534D02*
X999Y534D01*
X0Y533D02*
X7Y533D01*
X472Y533D02*
X474Y533D01*
X670Y533D02*
X672Y533D01*
X992Y533D02*
X999Y533D01*
X0Y532D02*
X7Y532D01*
X472Y532D02*
X474Y532D01*
X670Y532D02*
X672Y532D01*
X992Y532D02*
X999Y532D01*
X0Y531D02*
X7Y531D01*
X472Y531D02*
X474Y531D01*
X670Y531D02*
X672Y531D01*
X992Y531D02*
X999Y531D01*
X0Y530D02*
X7Y530D01*
X472Y530D02*
X474Y530D01*
X670Y530D02*
X672Y530D01*
X992Y530D02*
X999Y530D01*
X0Y529D02*
X7Y529D01*
X472Y529D02*
X474Y529D01*
X670Y529D02*
X672Y529D01*
X992Y529D02*
X999Y529D01*
X0Y528D02*
X7Y528D01*
X472Y528D02*
X474Y528D01*
X670Y528D02*
X672Y528D01*
X992Y528D02*
X999Y528D01*
X0Y527D02*
X7Y527D01*
X472Y527D02*
X474Y527D01*
X670Y527D02*
X672Y527D01*
X992Y527D02*
X999Y527D01*
X0Y526D02*
X7Y526D01*
X472Y526D02*
X474Y526D01*
X670Y526D02*
X672Y526D01*
X992Y526D02*
X999Y526D01*
X0Y525D02*
X7Y525D01*
X472Y525D02*
X474Y525D01*
X670Y525D02*
X672Y525D01*
X992Y525D02*
X999Y525D01*
X0Y524D02*
X7Y524D01*
X472Y524D02*
X474Y524D01*
X670Y524D02*
X672Y524D01*
X992Y524D02*
X999Y524D01*
X0Y523D02*
X7Y523D01*
X472Y523D02*
X474Y523D01*
X670Y523D02*
X672Y523D01*
X992Y523D02*
X999Y523D01*
X0Y522D02*
X7Y522D01*
X472Y522D02*
X474Y522D01*
X670Y522D02*
X672Y522D01*
X992Y522D02*
X999Y522D01*
X0Y521D02*
X7Y521D01*
X472Y521D02*
X474Y521D01*
X670Y521D02*
X672Y521D01*
X992Y521D02*
X999Y521D01*
X0Y520D02*
X7Y520D01*
X472Y520D02*
X474Y520D01*
X670Y520D02*
X672Y520D01*
X992Y520D02*
X999Y520D01*
X0Y519D02*
X7Y519D01*
X472Y519D02*
X474Y519D01*
X670Y519D02*
X672Y519D01*
X992Y519D02*
X999Y519D01*
X0Y518D02*
X7Y518D01*
X472Y518D02*
X474Y518D01*
X670Y518D02*
X672Y518D01*
X992Y518D02*
X999Y518D01*
X0Y517D02*
X7Y517D01*
X472Y517D02*
X474Y517D01*
X670Y517D02*
X672Y517D01*
X992Y517D02*
X999Y517D01*
X0Y516D02*
X7Y516D01*
X472Y516D02*
X474Y516D01*
X670Y516D02*
X672Y516D01*
X992Y516D02*
X999Y516D01*
X0Y515D02*
X7Y515D01*
X472Y515D02*
X474Y515D01*
X670Y515D02*
X672Y515D01*
X992Y515D02*
X999Y515D01*
X0Y514D02*
X7Y514D01*
X472Y514D02*
X474Y514D01*
X670Y514D02*
X672Y514D01*
X992Y514D02*
X999Y514D01*
X0Y513D02*
X7Y513D01*
X472Y513D02*
X474Y513D01*
X670Y513D02*
X672Y513D01*
X992Y513D02*
X999Y513D01*
X0Y512D02*
X7Y512D01*
X472Y512D02*
X474Y512D01*
X670Y512D02*
X672Y512D01*
X992Y512D02*
X999Y512D01*
X0Y511D02*
X7Y511D01*
X472Y511D02*
X474Y511D01*
X670Y511D02*
X672Y511D01*
X992Y511D02*
X999Y511D01*
X0Y510D02*
X7Y510D01*
X472Y510D02*
X474Y510D01*
X670Y510D02*
X672Y510D01*
X992Y510D02*
X999Y510D01*
X0Y509D02*
X7Y509D01*
X472Y509D02*
X474Y509D01*
X670Y509D02*
X672Y509D01*
X992Y509D02*
X999Y509D01*
X0Y508D02*
X7Y508D01*
X472Y508D02*
X474Y508D01*
X670Y508D02*
X672Y508D01*
X992Y508D02*
X999Y508D01*
X0Y507D02*
X7Y507D01*
X472Y507D02*
X474Y507D01*
X670Y507D02*
X672Y507D01*
X992Y507D02*
X999Y507D01*
X0Y506D02*
X7Y506D01*
X472Y506D02*
X474Y506D01*
X670Y506D02*
X672Y506D01*
X992Y506D02*
X999Y506D01*
X0Y505D02*
X7Y505D01*
X472Y505D02*
X474Y505D01*
X670Y505D02*
X672Y505D01*
X992Y505D02*
X999Y505D01*
X0Y504D02*
X7Y504D01*
X472Y504D02*
X474Y504D01*
X670Y504D02*
X672Y504D01*
X992Y504D02*
X999Y504D01*
X0Y503D02*
X7Y503D01*
X472Y503D02*
X474Y503D01*
X670Y503D02*
X672Y503D01*
X992Y503D02*
X999Y503D01*
X0Y502D02*
X7Y502D01*
X472Y502D02*
X474Y502D01*
X670Y502D02*
X672Y502D01*
X992Y502D02*
X999Y502D01*
X0Y501D02*
X7Y501D01*
X472Y501D02*
X474Y501D01*
X670Y501D02*
X672Y501D01*
X992Y501D02*
X999Y501D01*
X0Y500D02*
X7Y500D01*
X472Y500D02*
X474Y500D01*
X670Y500D02*
X672Y500D01*
X992Y500D02*
X999Y500D01*
X0Y499D02*
X7Y499D01*
X472Y499D02*
X474Y499D01*
X670Y499D02*
X672Y499D01*
X992Y499D02*
X999Y499D01*
X0Y498D02*
X7Y498D01*
X472Y498D02*
X474Y498D01*
X670Y498D02*
X672Y498D01*
X992Y498D02*
X999Y498D01*
X0Y497D02*
X7Y497D01*
X472Y497D02*
X474Y497D01*
X670Y497D02*
X672Y497D01*
X992Y497D02*
X999Y497D01*
X0Y496D02*
X7Y496D01*
X472Y496D02*
X474Y496D01*
X670Y496D02*
X672Y496D01*
X992Y496D02*
X999Y496D01*
X0Y495D02*
X7Y495D01*
X472Y495D02*
X474Y495D01*
X670Y495D02*
X672Y495D01*
X992Y495D02*
X999Y495D01*
X0Y494D02*
X7Y494D01*
X472Y494D02*
X474Y494D01*
X670Y494D02*
X672Y494D01*
X992Y494D02*
X999Y494D01*
X0Y493D02*
X7Y493D01*
X472Y493D02*
X474Y493D01*
X670Y493D02*
X672Y493D01*
X992Y493D02*
X999Y493D01*
X0Y492D02*
X7Y492D01*
X472Y492D02*
X474Y492D01*
X670Y492D02*
X672Y492D01*
X992Y492D02*
X999Y492D01*
X0Y491D02*
X7Y491D01*
X472Y491D02*
X474Y491D01*
X670Y491D02*
X672Y491D01*
X992Y491D02*
X999Y491D01*
X0Y490D02*
X7Y490D01*
X472Y490D02*
X474Y490D01*
X670Y490D02*
X672Y490D01*
X992Y490D02*
X999Y490D01*
X0Y489D02*
X7Y489D01*
X472Y489D02*
X474Y489D01*
X670Y489D02*
X672Y489D01*
X992Y489D02*
X999Y489D01*
X0Y488D02*
X7Y488D01*
X472Y488D02*
X474Y488D01*
X670Y488D02*
X672Y488D01*
X992Y488D02*
X999Y488D01*
X0Y487D02*
X7Y487D01*
X472Y487D02*
X474Y487D01*
X670Y487D02*
X672Y487D01*
X992Y487D02*
X999Y487D01*
X0Y486D02*
X7Y486D01*
X472Y486D02*
X474Y486D01*
X670Y486D02*
X672Y486D01*
X992Y486D02*
X999Y486D01*
X0Y485D02*
X7Y485D01*
X472Y485D02*
X474Y485D01*
X670Y485D02*
X672Y485D01*
X992Y485D02*
X999Y485D01*
X0Y484D02*
X7Y484D01*
X472Y484D02*
X474Y484D01*
X670Y484D02*
X672Y484D01*
X992Y484D02*
X999Y484D01*
X0Y483D02*
X7Y483D01*
X472Y483D02*
X474Y483D01*
X670Y483D02*
X672Y483D01*
X992Y483D02*
X999Y483D01*
X0Y482D02*
X7Y482D01*
X472Y482D02*
X474Y482D01*
X670Y482D02*
X672Y482D01*
X992Y482D02*
X999Y482D01*
X0Y481D02*
X7Y481D01*
X472Y481D02*
X474Y481D01*
X548Y481D02*
X596Y481D01*
X670Y481D02*
X672Y481D01*
X992Y481D02*
X999Y481D01*
X0Y480D02*
X7Y480D01*
X472Y480D02*
X672Y480D01*
X992Y480D02*
X999Y480D01*
X0Y479D02*
X7Y479D01*
X472Y479D02*
X672Y479D01*
X992Y479D02*
X999Y479D01*
X0Y478D02*
X7Y478D01*
X472Y478D02*
X671Y478D01*
X992Y478D02*
X999Y478D01*
X0Y477D02*
X7Y477D01*
X992Y477D02*
X999Y477D01*
X0Y476D02*
X7Y476D01*
X992Y476D02*
X999Y476D01*
X0Y475D02*
X7Y475D01*
X992Y475D02*
X999Y475D01*
X0Y474D02*
X7Y474D01*
X992Y474D02*
X999Y474D01*
X0Y473D02*
X7Y473D01*
X992Y473D02*
X999Y473D01*
X0Y472D02*
X7Y472D01*
X992Y472D02*
X999Y472D01*
X0Y471D02*
X7Y471D01*
X992Y471D02*
X999Y471D01*
X0Y470D02*
X7Y470D01*
X992Y470D02*
X999Y470D01*
X0Y469D02*
X7Y469D01*
X992Y469D02*
X999Y469D01*
X0Y468D02*
X7Y468D01*
X992Y468D02*
X999Y468D01*
X0Y467D02*
X7Y467D01*
X992Y467D02*
X999Y467D01*
X0Y466D02*
X7Y466D01*
X992Y466D02*
X999Y466D01*
X0Y465D02*
X7Y465D01*
X992Y465D02*
X999Y465D01*
X0Y464D02*
X7Y464D01*
X992Y464D02*
X999Y464D01*
X0Y463D02*
X7Y463D01*
X992Y463D02*
X999Y463D01*
X0Y462D02*
X7Y462D01*
X992Y462D02*
X999Y462D01*
X0Y461D02*
X7Y461D01*
X992Y461D02*
X999Y461D01*
X0Y460D02*
X7Y460D01*
X992Y460D02*
X999Y460D01*
X0Y459D02*
X7Y459D01*
X992Y459D02*
X999Y459D01*
X0Y458D02*
X7Y458D01*
X992Y458D02*
X999Y458D01*
X0Y457D02*
X7Y457D01*
X992Y457D02*
X999Y457D01*
X0Y456D02*
X7Y456D01*
X548Y456D02*
X564Y456D01*
X580Y456D02*
X595Y456D01*
X992Y456D02*
X999Y456D01*
X0Y455D02*
X7Y455D01*
X547Y455D02*
X565Y455D01*
X578Y455D02*
X595Y455D01*
X992Y455D02*
X999Y455D01*
X0Y454D02*
X7Y454D01*
X546Y454D02*
X565Y454D01*
X577Y454D02*
X595Y454D01*
X992Y454D02*
X999Y454D01*
X0Y453D02*
X7Y453D01*
X546Y453D02*
X565Y453D01*
X577Y453D02*
X595Y453D01*
X992Y453D02*
X999Y453D01*
X0Y452D02*
X7Y452D01*
X545Y452D02*
X549Y452D01*
X576Y452D02*
X581Y452D01*
X592Y452D02*
X595Y452D01*
X992Y452D02*
X999Y452D01*
X0Y451D02*
X7Y451D01*
X545Y451D02*
X549Y451D01*
X576Y451D02*
X579Y451D01*
X592Y451D02*
X595Y451D01*
X992Y451D02*
X999Y451D01*
X0Y450D02*
X7Y450D01*
X545Y450D02*
X549Y450D01*
X576Y450D02*
X579Y450D01*
X592Y450D02*
X595Y450D01*
X992Y450D02*
X999Y450D01*
X0Y449D02*
X7Y449D01*
X545Y449D02*
X549Y449D01*
X576Y449D02*
X579Y449D01*
X592Y449D02*
X595Y449D01*
X992Y449D02*
X999Y449D01*
X0Y448D02*
X7Y448D01*
X545Y448D02*
X549Y448D01*
X576Y448D02*
X579Y448D01*
X592Y448D02*
X595Y448D01*
X992Y448D02*
X999Y448D01*
X0Y447D02*
X7Y447D01*
X281Y447D02*
X285Y447D01*
X545Y447D02*
X549Y447D01*
X576Y447D02*
X579Y447D01*
X592Y447D02*
X595Y447D01*
X992Y447D02*
X999Y447D01*
X0Y446D02*
X7Y446D01*
X280Y446D02*
X286Y446D01*
X545Y446D02*
X549Y446D01*
X576Y446D02*
X580Y446D01*
X592Y446D02*
X595Y446D01*
X992Y446D02*
X999Y446D01*
X0Y445D02*
X7Y445D01*
X280Y445D02*
X286Y445D01*
X545Y445D02*
X549Y445D01*
X576Y445D02*
X595Y445D01*
X992Y445D02*
X999Y445D01*
X0Y444D02*
X7Y444D01*
X280Y444D02*
X286Y444D01*
X545Y444D02*
X549Y444D01*
X577Y444D02*
X595Y444D01*
X992Y444D02*
X999Y444D01*
X0Y443D02*
X7Y443D01*
X280Y443D02*
X287Y443D01*
X545Y443D02*
X549Y443D01*
X578Y443D02*
X595Y443D01*
X992Y443D02*
X999Y443D01*
X0Y442D02*
X7Y442D01*
X280Y442D02*
X287Y442D01*
X545Y442D02*
X561Y442D01*
X579Y442D02*
X595Y442D01*
X992Y442D02*
X999Y442D01*
X0Y441D02*
X7Y441D01*
X280Y441D02*
X287Y441D01*
X546Y441D02*
X564Y441D01*
X584Y441D02*
X588Y441D01*
X592Y441D02*
X595Y441D01*
X992Y441D02*
X999Y441D01*
X0Y440D02*
X7Y440D01*
X280Y440D02*
X287Y440D01*
X546Y440D02*
X565Y440D01*
X583Y440D02*
X587Y440D01*
X592Y440D02*
X595Y440D01*
X992Y440D02*
X999Y440D01*
X0Y439D02*
X7Y439D01*
X280Y439D02*
X287Y439D01*
X547Y439D02*
X565Y439D01*
X583Y439D02*
X587Y439D01*
X592Y439D02*
X595Y439D01*
X992Y439D02*
X999Y439D01*
X0Y438D02*
X7Y438D01*
X280Y438D02*
X287Y438D01*
X549Y438D02*
X565Y438D01*
X582Y438D02*
X586Y438D01*
X592Y438D02*
X595Y438D01*
X992Y438D02*
X999Y438D01*
X0Y437D02*
X7Y437D01*
X280Y437D02*
X287Y437D01*
X562Y437D02*
X565Y437D01*
X582Y437D02*
X586Y437D01*
X592Y437D02*
X595Y437D01*
X992Y437D02*
X999Y437D01*
X0Y436D02*
X7Y436D01*
X280Y436D02*
X287Y436D01*
X562Y436D02*
X565Y436D01*
X581Y436D02*
X585Y436D01*
X592Y436D02*
X595Y436D01*
X992Y436D02*
X999Y436D01*
X0Y435D02*
X7Y435D01*
X280Y435D02*
X287Y435D01*
X562Y435D02*
X565Y435D01*
X581Y435D02*
X585Y435D01*
X592Y435D02*
X595Y435D01*
X992Y435D02*
X999Y435D01*
X0Y434D02*
X7Y434D01*
X280Y434D02*
X287Y434D01*
X562Y434D02*
X565Y434D01*
X580Y434D02*
X584Y434D01*
X592Y434D02*
X595Y434D01*
X992Y434D02*
X999Y434D01*
X0Y433D02*
X7Y433D01*
X280Y433D02*
X287Y433D01*
X562Y433D02*
X565Y433D01*
X579Y433D02*
X583Y433D01*
X592Y433D02*
X595Y433D01*
X992Y433D02*
X999Y433D01*
X0Y432D02*
X7Y432D01*
X280Y432D02*
X287Y432D01*
X562Y432D02*
X565Y432D01*
X579Y432D02*
X583Y432D01*
X592Y432D02*
X595Y432D01*
X992Y432D02*
X999Y432D01*
X0Y431D02*
X7Y431D01*
X280Y431D02*
X287Y431D01*
X562Y431D02*
X565Y431D01*
X578Y431D02*
X582Y431D01*
X592Y431D02*
X595Y431D01*
X992Y431D02*
X999Y431D01*
X0Y430D02*
X7Y430D01*
X280Y430D02*
X287Y430D01*
X562Y430D02*
X565Y430D01*
X578Y430D02*
X582Y430D01*
X592Y430D02*
X595Y430D01*
X992Y430D02*
X999Y430D01*
X0Y429D02*
X7Y429D01*
X280Y429D02*
X287Y429D01*
X562Y429D02*
X565Y429D01*
X577Y429D02*
X581Y429D01*
X592Y429D02*
X595Y429D01*
X992Y429D02*
X999Y429D01*
X0Y428D02*
X7Y428D01*
X280Y428D02*
X287Y428D01*
X562Y428D02*
X565Y428D01*
X577Y428D02*
X580Y428D01*
X592Y428D02*
X595Y428D01*
X992Y428D02*
X999Y428D01*
X0Y427D02*
X7Y427D01*
X280Y427D02*
X287Y427D01*
X546Y427D02*
X565Y427D01*
X576Y427D02*
X580Y427D01*
X592Y427D02*
X595Y427D01*
X992Y427D02*
X999Y427D01*
X0Y426D02*
X7Y426D01*
X280Y426D02*
X287Y426D01*
X546Y426D02*
X565Y426D01*
X576Y426D02*
X579Y426D01*
X592Y426D02*
X595Y426D01*
X992Y426D02*
X999Y426D01*
X0Y425D02*
X7Y425D01*
X280Y425D02*
X287Y425D01*
X546Y425D02*
X565Y425D01*
X576Y425D02*
X579Y425D01*
X592Y425D02*
X595Y425D01*
X992Y425D02*
X999Y425D01*
X0Y424D02*
X7Y424D01*
X280Y424D02*
X287Y424D01*
X547Y424D02*
X565Y424D01*
X577Y424D02*
X578Y424D01*
X593Y424D02*
X594Y424D01*
X992Y424D02*
X999Y424D01*
X0Y423D02*
X7Y423D01*
X280Y423D02*
X287Y423D01*
X992Y423D02*
X999Y423D01*
X0Y422D02*
X7Y422D01*
X280Y422D02*
X287Y422D01*
X992Y422D02*
X999Y422D01*
X0Y421D02*
X7Y421D01*
X280Y421D02*
X287Y421D01*
X992Y421D02*
X999Y421D01*
X0Y420D02*
X7Y420D01*
X280Y420D02*
X287Y420D01*
X992Y420D02*
X999Y420D01*
X0Y419D02*
X7Y419D01*
X280Y419D02*
X287Y419D01*
X992Y419D02*
X999Y419D01*
X0Y418D02*
X7Y418D01*
X280Y418D02*
X287Y418D01*
X992Y418D02*
X999Y418D01*
X0Y417D02*
X7Y417D01*
X280Y417D02*
X287Y417D01*
X992Y417D02*
X999Y417D01*
X0Y416D02*
X7Y416D01*
X280Y416D02*
X287Y416D01*
X992Y416D02*
X999Y416D01*
X0Y415D02*
X7Y415D01*
X280Y415D02*
X287Y415D01*
X992Y415D02*
X999Y415D01*
X0Y414D02*
X7Y414D01*
X280Y414D02*
X287Y414D01*
X992Y414D02*
X999Y414D01*
X0Y413D02*
X7Y413D01*
X280Y413D02*
X287Y413D01*
X992Y413D02*
X999Y413D01*
X0Y412D02*
X7Y412D01*
X280Y412D02*
X287Y412D01*
X992Y412D02*
X999Y412D01*
X0Y411D02*
X7Y411D01*
X280Y411D02*
X287Y411D01*
X992Y411D02*
X999Y411D01*
X0Y410D02*
X7Y410D01*
X280Y410D02*
X287Y410D01*
X992Y410D02*
X999Y410D01*
X0Y409D02*
X7Y409D01*
X280Y409D02*
X287Y409D01*
X992Y409D02*
X999Y409D01*
X0Y408D02*
X7Y408D01*
X280Y408D02*
X287Y408D01*
X992Y408D02*
X999Y408D01*
X0Y407D02*
X7Y407D01*
X280Y407D02*
X287Y407D01*
X992Y407D02*
X999Y407D01*
X0Y406D02*
X7Y406D01*
X280Y406D02*
X287Y406D01*
X992Y406D02*
X999Y406D01*
X0Y405D02*
X7Y405D01*
X280Y405D02*
X287Y405D01*
X992Y405D02*
X999Y405D01*
X0Y404D02*
X7Y404D01*
X280Y404D02*
X287Y404D01*
X992Y404D02*
X999Y404D01*
X0Y403D02*
X7Y403D01*
X280Y403D02*
X287Y403D01*
X992Y403D02*
X999Y403D01*
X0Y402D02*
X7Y402D01*
X280Y402D02*
X287Y402D01*
X992Y402D02*
X999Y402D01*
X0Y401D02*
X7Y401D01*
X280Y401D02*
X287Y401D01*
X992Y401D02*
X999Y401D01*
X0Y400D02*
X7Y400D01*
X280Y400D02*
X287Y400D01*
X992Y400D02*
X999Y400D01*
X0Y399D02*
X7Y399D01*
X280Y399D02*
X287Y399D01*
X992Y399D02*
X999Y399D01*
X0Y398D02*
X7Y398D01*
X280Y398D02*
X287Y398D01*
X992Y398D02*
X999Y398D01*
X0Y397D02*
X7Y397D01*
X280Y397D02*
X287Y397D01*
X992Y397D02*
X999Y397D01*
X0Y396D02*
X7Y396D01*
X280Y396D02*
X287Y396D01*
X992Y396D02*
X999Y396D01*
X0Y395D02*
X7Y395D01*
X280Y395D02*
X287Y395D01*
X992Y395D02*
X999Y395D01*
X0Y394D02*
X7Y394D01*
X280Y394D02*
X287Y394D01*
X992Y394D02*
X999Y394D01*
X0Y393D02*
X7Y393D01*
X280Y393D02*
X287Y393D01*
X992Y393D02*
X999Y393D01*
X0Y392D02*
X7Y392D01*
X280Y392D02*
X287Y392D01*
X992Y392D02*
X999Y392D01*
X0Y391D02*
X7Y391D01*
X280Y391D02*
X287Y391D01*
X992Y391D02*
X999Y391D01*
X0Y390D02*
X7Y390D01*
X280Y390D02*
X287Y390D01*
X992Y390D02*
X999Y390D01*
X0Y389D02*
X7Y389D01*
X280Y389D02*
X287Y389D01*
X992Y389D02*
X999Y389D01*
X0Y388D02*
X7Y388D01*
X280Y388D02*
X287Y388D01*
X992Y388D02*
X999Y388D01*
X0Y387D02*
X7Y387D01*
X280Y387D02*
X287Y387D01*
X992Y387D02*
X999Y387D01*
X0Y386D02*
X7Y386D01*
X280Y386D02*
X287Y386D01*
X992Y386D02*
X999Y386D01*
X0Y385D02*
X7Y385D01*
X280Y385D02*
X287Y385D01*
X992Y385D02*
X999Y385D01*
X0Y384D02*
X7Y384D01*
X280Y384D02*
X287Y384D01*
X992Y384D02*
X999Y384D01*
X0Y383D02*
X7Y383D01*
X280Y383D02*
X287Y383D01*
X992Y383D02*
X999Y383D01*
X0Y382D02*
X7Y382D01*
X280Y382D02*
X287Y382D01*
X992Y382D02*
X999Y382D01*
X0Y381D02*
X7Y381D01*
X280Y381D02*
X287Y381D01*
X992Y381D02*
X999Y381D01*
X0Y380D02*
X7Y380D01*
X280Y380D02*
X287Y380D01*
X992Y380D02*
X999Y380D01*
X0Y379D02*
X7Y379D01*
X280Y379D02*
X287Y379D01*
X992Y379D02*
X999Y379D01*
X0Y378D02*
X7Y378D01*
X280Y378D02*
X287Y378D01*
X992Y378D02*
X999Y378D01*
X0Y377D02*
X7Y377D01*
X280Y377D02*
X287Y377D01*
X992Y377D02*
X999Y377D01*
X0Y376D02*
X7Y376D01*
X280Y376D02*
X287Y376D01*
X992Y376D02*
X999Y376D01*
X0Y375D02*
X7Y375D01*
X280Y375D02*
X287Y375D01*
X992Y375D02*
X999Y375D01*
X0Y374D02*
X7Y374D01*
X280Y374D02*
X287Y374D01*
X992Y374D02*
X999Y374D01*
X0Y373D02*
X7Y373D01*
X280Y373D02*
X287Y373D01*
X992Y373D02*
X999Y373D01*
X0Y372D02*
X7Y372D01*
X280Y372D02*
X287Y372D01*
X992Y372D02*
X999Y372D01*
X0Y371D02*
X7Y371D01*
X280Y371D02*
X287Y371D01*
X992Y371D02*
X999Y371D01*
X0Y370D02*
X7Y370D01*
X280Y370D02*
X287Y370D01*
X992Y370D02*
X999Y370D01*
X0Y369D02*
X7Y369D01*
X280Y369D02*
X287Y369D01*
X992Y369D02*
X999Y369D01*
X0Y368D02*
X7Y368D01*
X280Y368D02*
X287Y368D01*
X992Y368D02*
X999Y368D01*
X0Y367D02*
X7Y367D01*
X280Y367D02*
X287Y367D01*
X992Y367D02*
X999Y367D01*
X0Y366D02*
X7Y366D01*
X280Y366D02*
X287Y366D01*
X992Y366D02*
X999Y366D01*
X0Y365D02*
X7Y365D01*
X280Y365D02*
X287Y365D01*
X992Y365D02*
X999Y365D01*
X0Y364D02*
X7Y364D01*
X280Y364D02*
X287Y364D01*
X992Y364D02*
X999Y364D01*
X0Y363D02*
X7Y363D01*
X280Y363D02*
X287Y363D01*
X992Y363D02*
X999Y363D01*
X0Y362D02*
X7Y362D01*
X280Y362D02*
X287Y362D01*
X992Y362D02*
X999Y362D01*
X0Y361D02*
X7Y361D01*
X280Y361D02*
X287Y361D01*
X992Y361D02*
X999Y361D01*
X0Y360D02*
X7Y360D01*
X280Y360D02*
X287Y360D01*
X992Y360D02*
X999Y360D01*
X0Y359D02*
X7Y359D01*
X280Y359D02*
X287Y359D01*
X992Y359D02*
X999Y359D01*
X0Y358D02*
X7Y358D01*
X280Y358D02*
X287Y358D01*
X992Y358D02*
X999Y358D01*
X0Y357D02*
X7Y357D01*
X280Y357D02*
X287Y357D01*
X992Y357D02*
X999Y357D01*
X0Y356D02*
X7Y356D01*
X280Y356D02*
X287Y356D01*
X992Y356D02*
X999Y356D01*
X0Y355D02*
X7Y355D01*
X280Y355D02*
X287Y355D01*
X992Y355D02*
X999Y355D01*
X0Y354D02*
X7Y354D01*
X280Y354D02*
X287Y354D01*
X992Y354D02*
X999Y354D01*
X0Y353D02*
X7Y353D01*
X280Y353D02*
X287Y353D01*
X992Y353D02*
X999Y353D01*
X0Y352D02*
X7Y352D01*
X280Y352D02*
X287Y352D01*
X992Y352D02*
X999Y352D01*
X0Y351D02*
X7Y351D01*
X280Y351D02*
X287Y351D01*
X992Y351D02*
X999Y351D01*
X0Y350D02*
X7Y350D01*
X280Y350D02*
X287Y350D01*
X992Y350D02*
X999Y350D01*
X0Y349D02*
X7Y349D01*
X280Y349D02*
X287Y349D01*
X992Y349D02*
X999Y349D01*
X0Y348D02*
X7Y348D01*
X280Y348D02*
X287Y348D01*
X992Y348D02*
X999Y348D01*
X0Y347D02*
X7Y347D01*
X280Y347D02*
X287Y347D01*
X992Y347D02*
X999Y347D01*
X0Y346D02*
X7Y346D01*
X280Y346D02*
X287Y346D01*
X992Y346D02*
X999Y346D01*
X0Y345D02*
X7Y345D01*
X280Y345D02*
X287Y345D01*
X992Y345D02*
X999Y345D01*
X0Y344D02*
X7Y344D01*
X280Y344D02*
X287Y344D01*
X992Y344D02*
X999Y344D01*
X0Y343D02*
X7Y343D01*
X280Y343D02*
X287Y343D01*
X992Y343D02*
X999Y343D01*
X0Y342D02*
X7Y342D01*
X280Y342D02*
X287Y342D01*
X992Y342D02*
X999Y342D01*
X0Y341D02*
X7Y341D01*
X280Y341D02*
X287Y341D01*
X992Y341D02*
X999Y341D01*
X0Y340D02*
X7Y340D01*
X280Y340D02*
X287Y340D01*
X992Y340D02*
X999Y340D01*
X0Y339D02*
X7Y339D01*
X280Y339D02*
X287Y339D01*
X992Y339D02*
X999Y339D01*
X0Y338D02*
X7Y338D01*
X280Y338D02*
X287Y338D01*
X992Y338D02*
X999Y338D01*
X0Y337D02*
X7Y337D01*
X280Y337D02*
X287Y337D01*
X992Y337D02*
X999Y337D01*
X0Y336D02*
X7Y336D01*
X280Y336D02*
X287Y336D01*
X992Y336D02*
X999Y336D01*
X0Y335D02*
X7Y335D01*
X280Y335D02*
X287Y335D01*
X992Y335D02*
X999Y335D01*
X0Y334D02*
X7Y334D01*
X280Y334D02*
X287Y334D01*
X992Y334D02*
X999Y334D01*
X0Y333D02*
X7Y333D01*
X280Y333D02*
X287Y333D01*
X992Y333D02*
X999Y333D01*
X0Y332D02*
X7Y332D01*
X280Y332D02*
X287Y332D01*
X992Y332D02*
X999Y332D01*
X0Y331D02*
X7Y331D01*
X280Y331D02*
X287Y331D01*
X992Y331D02*
X999Y331D01*
X0Y330D02*
X7Y330D01*
X280Y330D02*
X287Y330D01*
X992Y330D02*
X999Y330D01*
X0Y329D02*
X7Y329D01*
X280Y329D02*
X287Y329D01*
X992Y329D02*
X999Y329D01*
X0Y328D02*
X7Y328D01*
X280Y328D02*
X287Y328D01*
X992Y328D02*
X999Y328D01*
X0Y327D02*
X7Y327D01*
X280Y327D02*
X287Y327D01*
X992Y327D02*
X999Y327D01*
X0Y326D02*
X7Y326D01*
X280Y326D02*
X287Y326D01*
X992Y326D02*
X999Y326D01*
X0Y325D02*
X7Y325D01*
X280Y325D02*
X287Y325D01*
X992Y325D02*
X999Y325D01*
X0Y324D02*
X7Y324D01*
X280Y324D02*
X287Y324D01*
X992Y324D02*
X999Y324D01*
X0Y323D02*
X7Y323D01*
X280Y323D02*
X287Y323D01*
X992Y323D02*
X999Y323D01*
X0Y322D02*
X7Y322D01*
X280Y322D02*
X287Y322D01*
X992Y322D02*
X999Y322D01*
X0Y321D02*
X7Y321D01*
X280Y321D02*
X287Y321D01*
X992Y321D02*
X999Y321D01*
X0Y320D02*
X7Y320D01*
X280Y320D02*
X287Y320D01*
X992Y320D02*
X999Y320D01*
X0Y319D02*
X7Y319D01*
X280Y319D02*
X287Y319D01*
X992Y319D02*
X999Y319D01*
X0Y318D02*
X7Y318D01*
X280Y318D02*
X287Y318D01*
X992Y318D02*
X999Y318D01*
X0Y317D02*
X7Y317D01*
X23Y317D02*
X272Y317D01*
X279Y317D02*
X287Y317D01*
X992Y317D02*
X999Y317D01*
X0Y316D02*
X7Y316D01*
X22Y316D02*
X269Y316D01*
X282Y316D02*
X287Y316D01*
X992Y316D02*
X999Y316D01*
X0Y315D02*
X7Y315D01*
X22Y315D02*
X266Y315D01*
X285Y315D02*
X287Y315D01*
X992Y315D02*
X999Y315D01*
X0Y314D02*
X7Y314D01*
X22Y314D02*
X264Y314D01*
X287Y314D02*
X287Y314D01*
X992Y314D02*
X999Y314D01*
X0Y313D02*
X7Y313D01*
X22Y313D02*
X263Y313D01*
X992Y313D02*
X999Y313D01*
X0Y312D02*
X7Y312D01*
X22Y312D02*
X261Y312D01*
X992Y312D02*
X999Y312D01*
X0Y311D02*
X7Y311D01*
X23Y311D02*
X260Y311D01*
X992Y311D02*
X999Y311D01*
X0Y310D02*
X7Y310D01*
X25Y310D02*
X259Y310D01*
X992Y310D02*
X999Y310D01*
X0Y309D02*
X7Y309D01*
X992Y309D02*
X999Y309D01*
X0Y308D02*
X7Y308D01*
X992Y308D02*
X999Y308D01*
X0Y307D02*
X7Y307D01*
X992Y307D02*
X999Y307D01*
X0Y306D02*
X7Y306D01*
X992Y306D02*
X999Y306D01*
X0Y305D02*
X7Y305D01*
X992Y305D02*
X999Y305D01*
X0Y304D02*
X7Y304D01*
X992Y304D02*
X999Y304D01*
X0Y303D02*
X7Y303D01*
X992Y303D02*
X999Y303D01*
X0Y302D02*
X7Y302D01*
X992Y302D02*
X999Y302D01*
X0Y301D02*
X7Y301D01*
X992Y301D02*
X999Y301D01*
X0Y300D02*
X7Y300D01*
X992Y300D02*
X999Y300D01*
X0Y299D02*
X7Y299D01*
X992Y299D02*
X999Y299D01*
X0Y298D02*
X7Y298D01*
X992Y298D02*
X999Y298D01*
X0Y297D02*
X7Y297D01*
X992Y297D02*
X999Y297D01*
X0Y296D02*
X7Y296D01*
X992Y296D02*
X999Y296D01*
X0Y295D02*
X7Y295D01*
X992Y295D02*
X999Y295D01*
X0Y294D02*
X7Y294D01*
X992Y294D02*
X999Y294D01*
X0Y293D02*
X7Y293D01*
X992Y293D02*
X999Y293D01*
X0Y292D02*
X7Y292D01*
X992Y292D02*
X999Y292D01*
X0Y291D02*
X7Y291D01*
X992Y291D02*
X999Y291D01*
X0Y290D02*
X7Y290D01*
X992Y290D02*
X999Y290D01*
X0Y289D02*
X7Y289D01*
X992Y289D02*
X999Y289D01*
X0Y288D02*
X7Y288D01*
X992Y288D02*
X999Y288D01*
X0Y287D02*
X7Y287D01*
X992Y287D02*
X999Y287D01*
X0Y286D02*
X7Y286D01*
X992Y286D02*
X999Y286D01*
X0Y285D02*
X7Y285D01*
X992Y285D02*
X999Y285D01*
X0Y284D02*
X7Y284D01*
X992Y284D02*
X999Y284D01*
X0Y283D02*
X7Y283D01*
X992Y283D02*
X999Y283D01*
X0Y282D02*
X7Y282D01*
X992Y282D02*
X999Y282D01*
X0Y281D02*
X7Y281D01*
X992Y281D02*
X999Y281D01*
X0Y280D02*
X7Y280D01*
X992Y280D02*
X999Y280D01*
X0Y279D02*
X7Y279D01*
X992Y279D02*
X999Y279D01*
X0Y278D02*
X7Y278D01*
X992Y278D02*
X999Y278D01*
X0Y277D02*
X7Y277D01*
X992Y277D02*
X999Y277D01*
X0Y276D02*
X7Y276D01*
X992Y276D02*
X999Y276D01*
X0Y275D02*
X7Y275D01*
X992Y275D02*
X999Y275D01*
X0Y274D02*
X7Y274D01*
X992Y274D02*
X999Y274D01*
X0Y273D02*
X7Y273D01*
X992Y273D02*
X999Y273D01*
X0Y272D02*
X7Y272D01*
X992Y272D02*
X999Y272D01*
X0Y271D02*
X7Y271D01*
X992Y271D02*
X999Y271D01*
X0Y270D02*
X7Y270D01*
X992Y270D02*
X999Y270D01*
X0Y269D02*
X7Y269D01*
X992Y269D02*
X999Y269D01*
X0Y268D02*
X7Y268D01*
X992Y268D02*
X999Y268D01*
X0Y267D02*
X7Y267D01*
X992Y267D02*
X999Y267D01*
X0Y266D02*
X7Y266D01*
X992Y266D02*
X999Y266D01*
X0Y265D02*
X7Y265D01*
X992Y265D02*
X999Y265D01*
X0Y264D02*
X7Y264D01*
X992Y264D02*
X999Y264D01*
X0Y263D02*
X7Y263D01*
X992Y263D02*
X999Y263D01*
X0Y262D02*
X7Y262D01*
X992Y262D02*
X999Y262D01*
X0Y261D02*
X7Y261D01*
X992Y261D02*
X999Y261D01*
X0Y260D02*
X7Y260D01*
X992Y260D02*
X999Y260D01*
X0Y259D02*
X7Y259D01*
X992Y259D02*
X999Y259D01*
X0Y258D02*
X7Y258D01*
X992Y258D02*
X999Y258D01*
X0Y257D02*
X7Y257D01*
X992Y257D02*
X999Y257D01*
X0Y256D02*
X7Y256D01*
X992Y256D02*
X999Y256D01*
X0Y255D02*
X7Y255D01*
X244Y255D02*
X255Y255D01*
X266Y255D02*
X277Y255D01*
X296Y255D02*
X315Y255D01*
X992Y255D02*
X999Y255D01*
X0Y254D02*
X7Y254D01*
X244Y254D02*
X255Y254D01*
X266Y254D02*
X279Y254D01*
X296Y254D02*
X315Y254D01*
X992Y254D02*
X999Y254D01*
X0Y253D02*
X7Y253D01*
X244Y253D02*
X255Y253D01*
X266Y253D02*
X280Y253D01*
X296Y253D02*
X315Y253D01*
X992Y253D02*
X999Y253D01*
X0Y252D02*
X7Y252D01*
X244Y252D02*
X255Y252D01*
X266Y252D02*
X280Y252D01*
X297Y252D02*
X315Y252D01*
X992Y252D02*
X999Y252D01*
X0Y251D02*
X7Y251D01*
X244Y251D02*
X247Y251D01*
X277Y251D02*
X281Y251D01*
X304Y251D02*
X307Y251D01*
X992Y251D02*
X999Y251D01*
X0Y250D02*
X7Y250D01*
X244Y250D02*
X247Y250D01*
X278Y250D02*
X281Y250D01*
X304Y250D02*
X307Y250D01*
X992Y250D02*
X999Y250D01*
X0Y249D02*
X7Y249D01*
X244Y249D02*
X247Y249D01*
X278Y249D02*
X282Y249D01*
X304Y249D02*
X307Y249D01*
X992Y249D02*
X999Y249D01*
X0Y248D02*
X7Y248D01*
X244Y248D02*
X247Y248D01*
X279Y248D02*
X282Y248D01*
X304Y248D02*
X307Y248D01*
X992Y248D02*
X999Y248D01*
X0Y247D02*
X7Y247D01*
X244Y247D02*
X247Y247D01*
X279Y247D02*
X283Y247D01*
X304Y247D02*
X307Y247D01*
X992Y247D02*
X999Y247D01*
X0Y246D02*
X7Y246D01*
X244Y246D02*
X247Y246D01*
X280Y246D02*
X283Y246D01*
X304Y246D02*
X307Y246D01*
X992Y246D02*
X999Y246D01*
X0Y245D02*
X7Y245D01*
X244Y245D02*
X247Y245D01*
X280Y245D02*
X284Y245D01*
X304Y245D02*
X307Y245D01*
X992Y245D02*
X999Y245D01*
X0Y244D02*
X7Y244D01*
X244Y244D02*
X247Y244D01*
X281Y244D02*
X284Y244D01*
X304Y244D02*
X307Y244D01*
X992Y244D02*
X999Y244D01*
X0Y243D02*
X7Y243D01*
X244Y243D02*
X247Y243D01*
X281Y243D02*
X285Y243D01*
X304Y243D02*
X307Y243D01*
X992Y243D02*
X999Y243D01*
X0Y242D02*
X7Y242D01*
X244Y242D02*
X247Y242D01*
X282Y242D02*
X285Y242D01*
X304Y242D02*
X307Y242D01*
X992Y242D02*
X999Y242D01*
X0Y241D02*
X7Y241D01*
X244Y241D02*
X247Y241D01*
X282Y241D02*
X285Y241D01*
X304Y241D02*
X307Y241D01*
X992Y241D02*
X999Y241D01*
X0Y240D02*
X7Y240D01*
X244Y240D02*
X247Y240D01*
X282Y240D02*
X285Y240D01*
X304Y240D02*
X307Y240D01*
X992Y240D02*
X999Y240D01*
X0Y239D02*
X7Y239D01*
X244Y239D02*
X247Y239D01*
X282Y239D02*
X285Y239D01*
X304Y239D02*
X307Y239D01*
X992Y239D02*
X999Y239D01*
X0Y238D02*
X7Y238D01*
X244Y238D02*
X247Y238D01*
X282Y238D02*
X285Y238D01*
X304Y238D02*
X307Y238D01*
X992Y238D02*
X999Y238D01*
X0Y237D02*
X7Y237D01*
X236Y237D02*
X238Y237D01*
X244Y237D02*
X247Y237D01*
X282Y237D02*
X285Y237D01*
X304Y237D02*
X307Y237D01*
X992Y237D02*
X999Y237D01*
X0Y236D02*
X7Y236D01*
X236Y236D02*
X239Y236D01*
X244Y236D02*
X247Y236D01*
X281Y236D02*
X285Y236D01*
X304Y236D02*
X307Y236D01*
X992Y236D02*
X999Y236D01*
X0Y235D02*
X7Y235D01*
X236Y235D02*
X239Y235D01*
X244Y235D02*
X247Y235D01*
X281Y235D02*
X284Y235D01*
X304Y235D02*
X307Y235D01*
X992Y235D02*
X999Y235D01*
X0Y234D02*
X7Y234D01*
X236Y234D02*
X239Y234D01*
X244Y234D02*
X247Y234D01*
X280Y234D02*
X284Y234D01*
X304Y234D02*
X307Y234D01*
X992Y234D02*
X999Y234D01*
X0Y233D02*
X7Y233D01*
X236Y233D02*
X239Y233D01*
X244Y233D02*
X247Y233D01*
X280Y233D02*
X283Y233D01*
X304Y233D02*
X307Y233D01*
X992Y233D02*
X999Y233D01*
X0Y232D02*
X7Y232D01*
X236Y232D02*
X239Y232D01*
X244Y232D02*
X247Y232D01*
X279Y232D02*
X283Y232D01*
X304Y232D02*
X307Y232D01*
X992Y232D02*
X999Y232D01*
X0Y231D02*
X7Y231D01*
X236Y231D02*
X239Y231D01*
X244Y231D02*
X247Y231D01*
X279Y231D02*
X282Y231D01*
X304Y231D02*
X307Y231D01*
X992Y231D02*
X999Y231D01*
X0Y230D02*
X7Y230D01*
X236Y230D02*
X239Y230D01*
X244Y230D02*
X247Y230D01*
X278Y230D02*
X282Y230D01*
X304Y230D02*
X307Y230D01*
X992Y230D02*
X999Y230D01*
X0Y229D02*
X7Y229D01*
X236Y229D02*
X239Y229D01*
X244Y229D02*
X247Y229D01*
X278Y229D02*
X281Y229D01*
X304Y229D02*
X307Y229D01*
X992Y229D02*
X999Y229D01*
X0Y228D02*
X7Y228D01*
X236Y228D02*
X239Y228D01*
X244Y228D02*
X247Y228D01*
X277Y228D02*
X281Y228D01*
X304Y228D02*
X307Y228D01*
X992Y228D02*
X999Y228D01*
X0Y227D02*
X7Y227D01*
X236Y227D02*
X254Y227D01*
X267Y227D02*
X280Y227D01*
X297Y227D02*
X315Y227D01*
X992Y227D02*
X999Y227D01*
X0Y226D02*
X7Y226D01*
X236Y226D02*
X255Y226D01*
X266Y226D02*
X280Y226D01*
X296Y226D02*
X315Y226D01*
X992Y226D02*
X999Y226D01*
X0Y225D02*
X7Y225D01*
X236Y225D02*
X255Y225D01*
X266Y225D02*
X279Y225D01*
X296Y225D02*
X315Y225D01*
X992Y225D02*
X999Y225D01*
X0Y224D02*
X7Y224D01*
X236Y224D02*
X255Y224D01*
X266Y224D02*
X278Y224D01*
X296Y224D02*
X315Y224D01*
X992Y224D02*
X999Y224D01*
X0Y223D02*
X7Y223D01*
X992Y223D02*
X999Y223D01*
X0Y222D02*
X7Y222D01*
X992Y222D02*
X999Y222D01*
X0Y221D02*
X7Y221D01*
X992Y221D02*
X999Y221D01*
X0Y220D02*
X7Y220D01*
X992Y220D02*
X999Y220D01*
X0Y219D02*
X7Y219D01*
X992Y219D02*
X999Y219D01*
X0Y218D02*
X7Y218D01*
X992Y218D02*
X999Y218D01*
X0Y217D02*
X7Y217D01*
X992Y217D02*
X999Y217D01*
X0Y216D02*
X7Y216D01*
X992Y216D02*
X999Y216D01*
X0Y215D02*
X7Y215D01*
X992Y215D02*
X999Y215D01*
X0Y214D02*
X7Y214D01*
X992Y214D02*
X999Y214D01*
X0Y213D02*
X7Y213D01*
X992Y213D02*
X999Y213D01*
X0Y212D02*
X7Y212D01*
X992Y212D02*
X999Y212D01*
X0Y211D02*
X7Y211D01*
X992Y211D02*
X999Y211D01*
X0Y210D02*
X7Y210D01*
X992Y210D02*
X999Y210D01*
X0Y209D02*
X7Y209D01*
X992Y209D02*
X999Y209D01*
X0Y208D02*
X7Y208D01*
X992Y208D02*
X999Y208D01*
X0Y207D02*
X7Y207D01*
X992Y207D02*
X999Y207D01*
X0Y206D02*
X7Y206D01*
X992Y206D02*
X999Y206D01*
X0Y205D02*
X7Y205D01*
X992Y205D02*
X999Y205D01*
X0Y204D02*
X7Y204D01*
X992Y204D02*
X999Y204D01*
X0Y203D02*
X7Y203D01*
X992Y203D02*
X999Y203D01*
X0Y202D02*
X7Y202D01*
X992Y202D02*
X999Y202D01*
X0Y201D02*
X7Y201D01*
X992Y201D02*
X999Y201D01*
X0Y200D02*
X7Y200D01*
X992Y200D02*
X999Y200D01*
X0Y199D02*
X7Y199D01*
X992Y199D02*
X999Y199D01*
X0Y198D02*
X7Y198D01*
X992Y198D02*
X999Y198D01*
X0Y197D02*
X7Y197D01*
X992Y197D02*
X999Y197D01*
X0Y196D02*
X7Y196D01*
X992Y196D02*
X999Y196D01*
X0Y195D02*
X7Y195D01*
X992Y195D02*
X999Y195D01*
X0Y194D02*
X7Y194D01*
X992Y194D02*
X999Y194D01*
X0Y193D02*
X7Y193D01*
X992Y193D02*
X999Y193D01*
X0Y192D02*
X7Y192D01*
X992Y192D02*
X999Y192D01*
X0Y191D02*
X7Y191D01*
X992Y191D02*
X999Y191D01*
X0Y190D02*
X7Y190D01*
X992Y190D02*
X999Y190D01*
X0Y189D02*
X7Y189D01*
X992Y189D02*
X999Y189D01*
X0Y188D02*
X7Y188D01*
X992Y188D02*
X999Y188D01*
X0Y187D02*
X7Y187D01*
X992Y187D02*
X999Y187D01*
X0Y186D02*
X7Y186D01*
X992Y186D02*
X999Y186D01*
X0Y185D02*
X7Y185D01*
X992Y185D02*
X999Y185D01*
X0Y184D02*
X7Y184D01*
X992Y184D02*
X999Y184D01*
X0Y183D02*
X7Y183D01*
X992Y183D02*
X999Y183D01*
X0Y182D02*
X7Y182D01*
X992Y182D02*
X999Y182D01*
X0Y181D02*
X7Y181D01*
X992Y181D02*
X999Y181D01*
X0Y180D02*
X7Y180D01*
X992Y180D02*
X999Y180D01*
X0Y179D02*
X7Y179D01*
X992Y179D02*
X999Y179D01*
X0Y178D02*
X7Y178D01*
X992Y178D02*
X999Y178D01*
X0Y177D02*
X7Y177D01*
X992Y177D02*
X999Y177D01*
X0Y176D02*
X7Y176D01*
X992Y176D02*
X999Y176D01*
X0Y175D02*
X7Y175D01*
X992Y175D02*
X999Y175D01*
X0Y174D02*
X7Y174D01*
X992Y174D02*
X999Y174D01*
X0Y173D02*
X7Y173D01*
X992Y173D02*
X999Y173D01*
X0Y172D02*
X7Y172D01*
X992Y172D02*
X999Y172D01*
X0Y171D02*
X7Y171D01*
X992Y171D02*
X999Y171D01*
X0Y170D02*
X7Y170D01*
X992Y170D02*
X999Y170D01*
X0Y169D02*
X7Y169D01*
X992Y169D02*
X999Y169D01*
X0Y168D02*
X7Y168D01*
X992Y168D02*
X999Y168D01*
X0Y167D02*
X7Y167D01*
X992Y167D02*
X999Y167D01*
X0Y166D02*
X7Y166D01*
X992Y166D02*
X999Y166D01*
X0Y165D02*
X7Y165D01*
X992Y165D02*
X999Y165D01*
X0Y164D02*
X7Y164D01*
X992Y164D02*
X999Y164D01*
X0Y163D02*
X7Y163D01*
X992Y163D02*
X999Y163D01*
X0Y162D02*
X7Y162D01*
X992Y162D02*
X999Y162D01*
X0Y161D02*
X7Y161D01*
X992Y161D02*
X999Y161D01*
X0Y160D02*
X7Y160D01*
X992Y160D02*
X999Y160D01*
X0Y159D02*
X7Y159D01*
X992Y159D02*
X999Y159D01*
X0Y158D02*
X7Y158D01*
X992Y158D02*
X999Y158D01*
X0Y157D02*
X7Y157D01*
X992Y157D02*
X999Y157D01*
X0Y156D02*
X7Y156D01*
X992Y156D02*
X999Y156D01*
X0Y155D02*
X7Y155D01*
X992Y155D02*
X999Y155D01*
X0Y154D02*
X7Y154D01*
X992Y154D02*
X999Y154D01*
X0Y153D02*
X7Y153D01*
X992Y153D02*
X999Y153D01*
X0Y152D02*
X7Y152D01*
X992Y152D02*
X999Y152D01*
X0Y151D02*
X7Y151D01*
X992Y151D02*
X999Y151D01*
X0Y150D02*
X7Y150D01*
X992Y150D02*
X999Y150D01*
X0Y149D02*
X7Y149D01*
X992Y149D02*
X999Y149D01*
X0Y148D02*
X7Y148D01*
X992Y148D02*
X999Y148D01*
X0Y147D02*
X7Y147D01*
X992Y147D02*
X999Y147D01*
X0Y146D02*
X7Y146D01*
X992Y146D02*
X999Y146D01*
X0Y145D02*
X7Y145D01*
X992Y145D02*
X999Y145D01*
X0Y144D02*
X7Y144D01*
X992Y144D02*
X999Y144D01*
X0Y143D02*
X7Y143D01*
X992Y143D02*
X999Y143D01*
X0Y142D02*
X7Y142D01*
X992Y142D02*
X999Y142D01*
X0Y141D02*
X7Y141D01*
X992Y141D02*
X999Y141D01*
X0Y140D02*
X7Y140D01*
X992Y140D02*
X999Y140D01*
X0Y139D02*
X7Y139D01*
X992Y139D02*
X999Y139D01*
X0Y138D02*
X7Y138D01*
X992Y138D02*
X999Y138D01*
X0Y137D02*
X7Y137D01*
X992Y137D02*
X999Y137D01*
X0Y136D02*
X7Y136D01*
X992Y136D02*
X999Y136D01*
X0Y135D02*
X7Y135D01*
X992Y135D02*
X999Y135D01*
X0Y134D02*
X7Y134D01*
X992Y134D02*
X999Y134D01*
X0Y133D02*
X7Y133D01*
X992Y133D02*
X999Y133D01*
X0Y132D02*
X7Y132D01*
X992Y132D02*
X999Y132D01*
X0Y131D02*
X7Y131D01*
X992Y131D02*
X999Y131D01*
X0Y130D02*
X7Y130D01*
X992Y130D02*
X999Y130D01*
X0Y129D02*
X7Y129D01*
X992Y129D02*
X999Y129D01*
X0Y128D02*
X7Y128D01*
X992Y128D02*
X999Y128D01*
X0Y127D02*
X7Y127D01*
X992Y127D02*
X999Y127D01*
X0Y126D02*
X7Y126D01*
X992Y126D02*
X999Y126D01*
X0Y125D02*
X7Y125D01*
X992Y125D02*
X999Y125D01*
X0Y124D02*
X7Y124D01*
X992Y124D02*
X999Y124D01*
X0Y123D02*
X7Y123D01*
X992Y123D02*
X999Y123D01*
X0Y122D02*
X7Y122D01*
X992Y122D02*
X999Y122D01*
X0Y121D02*
X7Y121D01*
X992Y121D02*
X999Y121D01*
X0Y120D02*
X7Y120D01*
X992Y120D02*
X999Y120D01*
X0Y119D02*
X7Y119D01*
X992Y119D02*
X999Y119D01*
X0Y118D02*
X7Y118D01*
X992Y118D02*
X999Y118D01*
X0Y117D02*
X7Y117D01*
X992Y117D02*
X999Y117D01*
X0Y116D02*
X7Y116D01*
X992Y116D02*
X999Y116D01*
X0Y115D02*
X7Y115D01*
X992Y115D02*
X999Y115D01*
X0Y114D02*
X7Y114D01*
X992Y114D02*
X999Y114D01*
X0Y113D02*
X7Y113D01*
X992Y113D02*
X999Y113D01*
X0Y112D02*
X7Y112D01*
X992Y112D02*
X999Y112D01*
X0Y111D02*
X7Y111D01*
X992Y111D02*
X999Y111D01*
X0Y110D02*
X7Y110D01*
X992Y110D02*
X999Y110D01*
X0Y109D02*
X7Y109D01*
X992Y109D02*
X999Y109D01*
X0Y108D02*
X7Y108D01*
X992Y108D02*
X999Y108D01*
X0Y107D02*
X7Y107D01*
X992Y107D02*
X999Y107D01*
X0Y106D02*
X7Y106D01*
X992Y106D02*
X999Y106D01*
X0Y105D02*
X7Y105D01*
X992Y105D02*
X999Y105D01*
X0Y104D02*
X7Y104D01*
X992Y104D02*
X999Y104D01*
X0Y103D02*
X7Y103D01*
X992Y103D02*
X999Y103D01*
X0Y102D02*
X7Y102D01*
X992Y102D02*
X999Y102D01*
X0Y101D02*
X7Y101D01*
X992Y101D02*
X999Y101D01*
X0Y100D02*
X7Y100D01*
X992Y100D02*
X999Y100D01*
X0Y99D02*
X7Y99D01*
X992Y99D02*
X999Y99D01*
X0Y98D02*
X7Y98D01*
X992Y98D02*
X999Y98D01*
X0Y97D02*
X7Y97D01*
X992Y97D02*
X999Y97D01*
X0Y96D02*
X7Y96D01*
X992Y96D02*
X999Y96D01*
X0Y95D02*
X7Y95D01*
X992Y95D02*
X999Y95D01*
X0Y94D02*
X7Y94D01*
X992Y94D02*
X999Y94D01*
X0Y93D02*
X7Y93D01*
X992Y93D02*
X999Y93D01*
X0Y92D02*
X7Y92D01*
X992Y92D02*
X999Y92D01*
X0Y91D02*
X7Y91D01*
X992Y91D02*
X999Y91D01*
X0Y90D02*
X7Y90D01*
X992Y90D02*
X999Y90D01*
X0Y89D02*
X7Y89D01*
X992Y89D02*
X999Y89D01*
X0Y88D02*
X7Y88D01*
X992Y88D02*
X999Y88D01*
X0Y87D02*
X7Y87D01*
X992Y87D02*
X999Y87D01*
X0Y86D02*
X7Y86D01*
X992Y86D02*
X999Y86D01*
X0Y85D02*
X7Y85D01*
X992Y85D02*
X999Y85D01*
X0Y84D02*
X7Y84D01*
X992Y84D02*
X999Y84D01*
X0Y83D02*
X7Y83D01*
X992Y83D02*
X999Y83D01*
X0Y82D02*
X7Y82D01*
X992Y82D02*
X999Y82D01*
X0Y81D02*
X7Y81D01*
X992Y81D02*
X999Y81D01*
X0Y80D02*
X7Y80D01*
X992Y80D02*
X999Y80D01*
X0Y79D02*
X7Y79D01*
X992Y79D02*
X999Y79D01*
X0Y78D02*
X7Y78D01*
X992Y78D02*
X999Y78D01*
X0Y77D02*
X7Y77D01*
X992Y77D02*
X999Y77D01*
X0Y76D02*
X7Y76D01*
X992Y76D02*
X999Y76D01*
X0Y75D02*
X7Y75D01*
X992Y75D02*
X999Y75D01*
X0Y74D02*
X7Y74D01*
X992Y74D02*
X999Y74D01*
X0Y73D02*
X7Y73D01*
X992Y73D02*
X999Y73D01*
X0Y72D02*
X7Y72D01*
X992Y72D02*
X999Y72D01*
X0Y71D02*
X7Y71D01*
X992Y71D02*
X999Y71D01*
X0Y70D02*
X7Y70D01*
X992Y70D02*
X999Y70D01*
X0Y69D02*
X7Y69D01*
X992Y69D02*
X999Y69D01*
X0Y68D02*
X7Y68D01*
X992Y68D02*
X999Y68D01*
X0Y67D02*
X7Y67D01*
X992Y67D02*
X999Y67D01*
X0Y66D02*
X7Y66D01*
X992Y66D02*
X999Y66D01*
X0Y65D02*
X7Y65D01*
X992Y65D02*
X999Y65D01*
X0Y64D02*
X7Y64D01*
X992Y64D02*
X999Y64D01*
X0Y63D02*
X7Y63D01*
X992Y63D02*
X999Y63D01*
X0Y62D02*
X7Y62D01*
X992Y62D02*
X999Y62D01*
X0Y61D02*
X7Y61D01*
X992Y61D02*
X999Y61D01*
X0Y60D02*
X7Y60D01*
X992Y60D02*
X999Y60D01*
X0Y59D02*
X7Y59D01*
X992Y59D02*
X999Y59D01*
X0Y58D02*
X7Y58D01*
X992Y58D02*
X999Y58D01*
X0Y57D02*
X7Y57D01*
X992Y57D02*
X999Y57D01*
X0Y56D02*
X7Y56D01*
X992Y56D02*
X999Y56D01*
X0Y55D02*
X7Y55D01*
X992Y55D02*
X999Y55D01*
X0Y54D02*
X7Y54D01*
X992Y54D02*
X999Y54D01*
X0Y53D02*
X7Y53D01*
X992Y53D02*
X999Y53D01*
X0Y52D02*
X7Y52D01*
X992Y52D02*
X999Y52D01*
X0Y51D02*
X7Y51D01*
X992Y51D02*
X999Y51D01*
X0Y50D02*
X7Y50D01*
X992Y50D02*
X999Y50D01*
X0Y49D02*
X7Y49D01*
X992Y49D02*
X999Y49D01*
X0Y48D02*
X7Y48D01*
X992Y48D02*
X999Y48D01*
X0Y47D02*
X7Y47D01*
X992Y47D02*
X999Y47D01*
X0Y46D02*
X7Y46D01*
X992Y46D02*
X999Y46D01*
X0Y45D02*
X7Y45D01*
X992Y45D02*
X999Y45D01*
X0Y44D02*
X7Y44D01*
X992Y44D02*
X999Y44D01*
X0Y43D02*
X7Y43D01*
X992Y43D02*
X999Y43D01*
X0Y42D02*
X7Y42D01*
X992Y42D02*
X999Y42D01*
X0Y41D02*
X7Y41D01*
X992Y41D02*
X999Y41D01*
X0Y40D02*
X7Y40D01*
X992Y40D02*
X999Y40D01*
X0Y39D02*
X7Y39D01*
X992Y39D02*
X999Y39D01*
X0Y38D02*
X7Y38D01*
X992Y38D02*
X999Y38D01*
X0Y37D02*
X7Y37D01*
X992Y37D02*
X999Y37D01*
X0Y36D02*
X7Y36D01*
X992Y36D02*
X999Y36D01*
X0Y35D02*
X7Y35D01*
X992Y35D02*
X999Y35D01*
X0Y34D02*
X7Y34D01*
X992Y34D02*
X999Y34D01*
X0Y33D02*
X7Y33D01*
X992Y33D02*
X999Y33D01*
X0Y32D02*
X7Y32D01*
X992Y32D02*
X999Y32D01*
X0Y31D02*
X7Y31D01*
X992Y31D02*
X999Y31D01*
X0Y30D02*
X7Y30D01*
X992Y30D02*
X999Y30D01*
X0Y29D02*
X7Y29D01*
X992Y29D02*
X999Y29D01*
X0Y28D02*
X7Y28D01*
X992Y28D02*
X999Y28D01*
X0Y27D02*
X7Y27D01*
X992Y27D02*
X999Y27D01*
X0Y26D02*
X7Y26D01*
X992Y26D02*
X999Y26D01*
X0Y25D02*
X7Y25D01*
X992Y25D02*
X999Y25D01*
X0Y24D02*
X7Y24D01*
X992Y24D02*
X999Y24D01*
X0Y23D02*
X7Y23D01*
X992Y23D02*
X999Y23D01*
X0Y22D02*
X7Y22D01*
X992Y22D02*
X999Y22D01*
X0Y21D02*
X7Y21D01*
X992Y21D02*
X999Y21D01*
X0Y20D02*
X7Y20D01*
X992Y20D02*
X999Y20D01*
X0Y19D02*
X7Y19D01*
X992Y19D02*
X999Y19D01*
X0Y18D02*
X7Y18D01*
X992Y18D02*
X999Y18D01*
X0Y17D02*
X7Y17D01*
X992Y17D02*
X999Y17D01*
X0Y16D02*
X7Y16D01*
X992Y16D02*
X999Y16D01*
X0Y15D02*
X7Y15D01*
X992Y15D02*
X999Y15D01*
X0Y14D02*
X7Y14D01*
X992Y14D02*
X999Y14D01*
X0Y13D02*
X7Y13D01*
X992Y13D02*
X999Y13D01*
X0Y12D02*
X7Y12D01*
X992Y12D02*
X999Y12D01*
X0Y11D02*
X7Y11D01*
X992Y11D02*
X999Y11D01*
X0Y10D02*
X7Y10D01*
X992Y10D02*
X999Y10D01*
X0Y9D02*
X7Y9D01*
X992Y9D02*
X999Y9D01*
X0Y8D02*
X999Y8D01*
X0Y7D02*
X999Y7D01*
X0Y6D02*
X999Y6D01*
X0Y5D02*
X999Y5D01*
X0Y4D02*
X999Y4D01*
X0Y3D02*
X999Y3D01*
X0Y2D02*
X999Y2D01*
X0Y1D02*
X999Y1D01*
D02*
G04 End of Silk0*
M02*