G04 MADE WITH FRITZING*
G04 WWW.FRITZING.ORG*
G04 DOUBLE SIDED*
G04 HOLES PLATED*
G04 CONTOUR ON CENTER OF CONTOUR VECTOR*
%ASAXBY*%
%FSLAX23Y23*%
%MOIN*%
%OFA0B0*%
%SFA1.0B1.0*%
%ADD10C,0.078000*%
%ADD11C,0.060000*%
%ADD12C,0.039370*%
%ADD13R,0.055556X0.055556*%
%ADD14R,0.062992X0.074803*%
%ADD15R,0.048000X0.088000*%
%ADD16R,0.141732X0.086614*%
%ADD17R,0.035433X0.031496*%
%ADD18C,0.024000*%
%ADD19R,0.001000X0.001000*%
%LNCOPPER0*%
G90*
G70*
G54D10*
X77Y85D03*
X177Y85D03*
G54D11*
X638Y954D03*
X738Y954D03*
X838Y954D03*
X938Y954D03*
G54D12*
X468Y628D03*
X180Y820D03*
X156Y724D03*
X708Y220D03*
X468Y700D03*
X276Y292D03*
X708Y652D03*
X948Y532D03*
X108Y844D03*
X84Y412D03*
G54D13*
X738Y954D03*
X639Y955D03*
X838Y955D03*
X935Y955D03*
G54D14*
X380Y932D03*
X257Y932D03*
X642Y774D03*
X520Y774D03*
X777Y776D03*
X899Y776D03*
X781Y626D03*
X903Y626D03*
X511Y523D03*
X633Y523D03*
G54D15*
X64Y500D03*
X155Y500D03*
X246Y500D03*
G54D16*
X155Y256D03*
G54D17*
X46Y588D03*
G54D18*
X487Y624D02*
X708Y580D01*
X708Y580D02*
X708Y556D01*
X708Y556D02*
X876Y556D01*
X876Y556D02*
X891Y594D01*
D02*
X199Y820D02*
X324Y820D01*
X324Y820D02*
X364Y900D01*
D02*
X485Y530D02*
X300Y580D01*
X300Y580D02*
X59Y587D01*
D02*
X137Y634D02*
X180Y664D01*
X180Y664D02*
X607Y934D01*
D02*
X163Y706D02*
X180Y664D01*
D02*
X487Y300D02*
X690Y226D01*
D02*
X264Y485D02*
X487Y300D01*
D02*
X87Y113D02*
X108Y172D01*
X108Y172D02*
X756Y172D01*
X756Y172D02*
X756Y436D01*
X756Y436D02*
X659Y504D01*
D02*
X751Y802D02*
X708Y844D01*
X708Y844D02*
X588Y844D01*
X588Y844D02*
X546Y801D01*
D02*
X479Y715D02*
X498Y742D01*
D02*
X760Y922D02*
X780Y892D01*
X780Y892D02*
X844Y884D01*
D02*
X844Y884D02*
X841Y788D01*
D02*
X841Y788D02*
X837Y699D01*
D02*
X837Y699D02*
X805Y658D01*
D02*
X220Y275D02*
X258Y287D01*
D02*
X726Y646D02*
X755Y635D01*
D02*
X925Y749D02*
X972Y700D01*
X972Y700D02*
X951Y551D01*
D02*
X928Y917D02*
X905Y808D01*
D02*
X232Y916D02*
X124Y854D01*
D02*
X50Y673D02*
X102Y826D01*
D02*
X72Y462D02*
X80Y430D01*
G36*
X64Y647D02*
X29Y647D01*
X29Y678D01*
X64Y678D01*
X64Y647D01*
G37*
D02*
G36*
X143Y609D02*
X107Y609D01*
X107Y641D01*
X143Y641D01*
X143Y609D01*
G37*
D02*
G54D19*
D02*
G04 End of Copper0*
M02*